<svg width="1440" height="930" viewBox="0 0 1440 930" fill="none" xmlns="http://www.w3.org/2000/svg">
<rect width="1440" height="930" fill="#E8E8E8"/>
<g clip-path="url(#clip0_56_261)">
<path d="M709.848 403.541C738.689 403.541 762.715 427.42 762.624 455.928C762.532 485.215 738.689 509.186 709.848 509.048C680.824 508.911 656.889 484.803 657.073 455.882C657.256 427.099 681.007 403.541 709.848 403.541Z" fill="#FF642F"/>
<path d="M702.008 349C767.851 349 815.308 394.833 817.004 452.628C817.142 456.936 818.655 459.869 821.956 462.069C829.338 467.019 831.447 473.803 829.751 482.328C828.192 490.257 826.037 497.865 820.947 504.281C815.583 511.065 809.53 511.065 804.303 504.19C797.7 495.527 795.133 485.398 795.087 474.673C795.041 469.632 798.021 465.828 802.011 463.261C807.604 459.686 808.659 454.92 808.155 448.732C805.174 409.683 778.351 375.125 741.211 362.887C703.062 350.329 661.566 361.512 635.66 391.395C634.56 392.679 633.551 394.008 632.405 395.245C630.571 397.216 628.461 397.629 626.261 395.841C624.151 394.099 623.739 392.037 625.481 389.791C626.352 388.645 627.315 387.5 628.278 386.354C649.92 361.833 677.156 349.458 702.008 349Z" fill="#535353"/>
<path d="M603.656 436.77C606.132 431.041 605.031 426.87 605.215 422.882C605.398 418.482 605.123 414.037 605.352 409.637C605.444 407.62 604.022 403.908 607.186 404.045C610.029 404.137 608.699 407.849 608.791 409.958C608.974 416.237 608.791 422.562 608.883 428.886C608.929 430.857 608.103 433.057 609.937 434.845C612.78 434.295 611.771 431.957 611.817 430.353C611.955 422.791 611.863 415.228 611.909 407.666C611.909 406.108 611.496 403.77 613.972 403.953C615.944 404.091 615.348 406.245 615.348 407.574C615.394 415.549 615.394 423.524 615.394 431.545C615.394 432.782 615.485 433.974 617.044 435.028C619.245 433.241 618.557 430.857 618.603 428.749C618.695 421.416 618.649 414.037 618.649 406.703C618.649 405.466 618.649 403.908 620.3 403.862C621.996 403.816 622.042 405.42 622.042 406.612C622.042 418.987 622.042 431.407 621.95 443.782C621.905 447.403 619.337 449.557 616.54 451.024C612.184 453.315 611.221 456.661 611.405 461.382C613.055 501.577 641.117 537.693 680.595 550.114C719.936 562.489 763.449 548.602 788.301 515.831C790.41 513.035 792.015 507.123 797.15 510.881C802.469 514.823 797.379 518.398 795.087 521.377C767.255 557.539 720.394 572.206 677.156 558.456C633.826 544.66 604.206 505.336 602.693 459.274C602.555 455.332 601.18 453.04 597.97 451.253C593.66 448.87 592.055 445.295 592.193 440.299C592.514 429.803 592.238 419.307 592.33 408.766C592.33 407.07 591.367 404.045 593.706 403.999C596.732 403.953 595.54 407.162 595.54 408.995C595.677 416.328 595.586 423.707 595.632 431.041C595.632 432.37 595.265 434.478 597.19 434.524C599.346 434.57 598.749 432.416 598.749 431.086C598.841 423.295 598.749 415.549 598.795 407.758C598.795 406.199 598.291 403.724 600.584 403.816C602.647 403.908 602.28 406.337 602.28 407.987C602.326 416.191 602.28 424.395 602.372 432.553C602.372 433.424 602.784 434.157 603.656 436.77Z" fill="#7F7F7F"/>
<path d="M709.665 539.756C675.872 539.435 644.83 518.398 632.588 487.232C631.304 484.023 628.874 480.173 633.918 478.248C638.503 476.507 639.374 480.494 640.658 483.611C653.726 515.51 684.859 533.844 719.202 529.81C720.44 529.673 721.724 529.535 722.962 529.352C725.759 528.985 728.097 529.581 728.693 532.744C729.335 536.273 727.089 537.739 724.062 538.152C719.294 538.839 714.479 539.252 709.665 539.756Z" fill="#7F7F7F"/>
<path d="M710.628 372.787C745.613 374.804 771.336 391.212 786.467 423.616C787.155 425.128 787.705 426.732 788.255 428.336C789.264 431.178 788.484 433.332 785.504 434.341C782.799 435.257 781.011 433.928 780.048 431.499C777.893 426.045 775.6 420.637 772.207 415.778C754.371 390.204 729.932 379.158 698.936 382.779C695.497 383.191 691.783 384.291 691.003 379.433C690.224 374.391 694.442 374.437 697.652 374.025C701.779 373.429 705.951 373.2 710.628 372.787Z" fill="#7F7F7F"/>
<path d="M667.573 394.42C664.822 393.825 662.85 392.358 663.08 389.745C663.492 385.437 667.16 384.016 670.691 383.695C673.259 383.466 674.864 385.804 674.543 388.416C674.084 392.495 670.324 393.091 667.573 394.42Z" fill="#535353"/>
<path d="M756.755 523.21C755.334 526.694 752.491 528.481 749.098 528.664C746.071 528.802 744.467 526.281 745.2 523.531C746.163 519.956 749.327 518.306 752.812 518.352C755.379 518.398 756.526 520.598 756.755 523.21Z" fill="#535353"/>
<path d="M615.164 620.834C617.686 619.184 619.75 617.672 622.042 616.434C628.874 612.676 634.835 613.363 638.916 620.513C640.016 622.484 640.841 624.867 640.979 627.067C641.208 631.467 640.979 635.867 640.704 640.267C640.566 642.513 640.062 644.713 639.466 646.867C636.302 657.959 628.553 664.192 616.815 662.129C614.889 661.808 613.055 660.617 611.175 659.883C610.671 659.7 610.166 659.608 609.525 659.471C609.066 661.9 608.516 664.1 608.332 666.346C607.874 671.158 607.645 675.971 607.186 680.783C607.14 681.425 606.636 682.387 606.086 682.617C602.051 684.358 597.786 685.046 593.385 684.862C592.88 684.862 592.009 683.946 592.009 683.487C592.101 680.462 592.33 677.437 592.651 674.412C592.88 672.258 593.293 670.104 593.66 667.95C594.393 664.054 595.127 660.159 595.907 656.309C596.09 655.392 596.457 654.475 596.732 653.604C596.549 653.467 596.365 653.329 596.182 653.192C595.311 653.879 594.439 654.613 593.568 655.3C588.387 659.563 582.793 662.633 575.823 662.496C572.064 662.45 568.579 659.104 567.478 655.529C565.919 650.534 566.378 645.4 566.286 640.267C566.24 637.242 566.24 637.059 563.168 637.013C557.941 636.967 552.76 637.15 547.533 637.242C544.461 637.288 543.956 639.9 543.085 641.963C541.435 645.996 540.013 650.075 538.546 654.154C538.042 655.529 537.537 656.859 537.17 658.188C536.07 662.358 534.511 663.138 530.568 661.396C527.725 660.159 527.404 659.379 528.78 656.309C531.164 650.9 533.594 645.538 536.07 640.175C538.684 634.538 541.526 628.992 544.094 623.355C547.35 616.159 550.467 608.917 553.631 601.63C554.09 600.53 554.365 599.338 554.686 598.193C555.374 595.763 554.778 593.563 553.494 591.501C551.43 588.155 551.384 588.064 555.419 587.514C560.784 586.78 566.149 586.184 571.513 585.634C573.21 585.451 574.952 585.864 576.649 585.818C578.62 585.818 579.492 587.055 579.767 588.659C580.317 591.868 580.638 595.122 581.051 598.376C582.61 610.934 581.555 623.584 582.059 636.188C582.243 640.817 583.114 645.446 583.939 650.029C584.489 653.054 586.278 653.696 589.029 652.184C591 651.129 592.926 649.846 595.035 649.204C597.328 648.471 597.924 646.821 598.245 644.942C598.795 641.505 599.162 638.067 599.575 634.584C599.804 632.613 600.079 630.642 600.262 628.671C600.629 625.326 599.529 622.346 597.786 619.642C595.723 616.388 595.769 616.113 599.529 615.701C603.426 615.242 607.324 614.922 611.221 614.692C614.018 614.555 614.614 615.197 614.935 617.947C615.027 618.817 615.073 619.596 615.164 620.834ZM625.848 633.621C625.848 632.75 625.848 631.009 625.848 629.313C625.848 628.946 625.848 628.58 625.802 628.259C625.481 624.821 623.28 622.942 620.162 623.676C619.016 623.951 618.007 624.638 616.907 625.051C615.439 625.646 615.073 626.701 614.981 628.213C614.798 631.238 614.522 634.263 613.926 637.242C612.872 642.925 611.542 648.563 610.396 654.2C610.304 654.567 610.442 655.3 610.625 655.346C612.597 655.988 614.614 657.134 616.54 656.95C619.704 656.675 621.675 654.154 622.776 651.359C624.885 645.996 626.169 640.359 625.848 633.621ZM564.223 595.122C558.812 607.176 553.769 618.588 548.633 630.001C549.275 630.23 549.459 630.367 549.642 630.367C554.732 630.413 559.775 630.367 564.865 630.413C566.057 630.413 566.47 629.817 566.47 628.717C566.424 618.359 566.928 608.001 565.415 597.734C565.323 596.955 564.773 596.313 564.223 595.122Z" fill="#FF642F"/>
<path d="M763.22 614.555C764.137 614.647 764.962 614.784 765.787 614.784C779.726 614.784 793.665 614.784 807.604 614.784C809.943 614.784 810.447 614.372 810.539 611.897C810.676 608.826 810.676 605.755 810.676 602.684C810.676 601.493 810.952 600.484 812.235 600.255C816.27 599.522 820.305 598.88 824.34 598.193C825.853 597.918 826.495 598.651 826.358 600.072C826.037 603.876 825.716 607.726 825.395 611.53C825.303 612.492 825.211 613.455 825.12 614.738C836.629 614.738 847.862 614.738 859.417 614.738C859.188 615.517 859.142 616.022 858.867 616.342C856.482 619.184 854.006 621.934 851.668 624.776C850.934 625.646 850.43 626.059 849.192 625.371C841.626 621.063 833.281 621.109 824.936 621.43C824.386 621.43 823.469 622.026 823.377 622.438C822.552 626.242 821.864 630.092 821.222 633.942C820.397 638.755 819.709 643.567 818.93 648.379C818.838 648.884 818.655 649.342 818.655 649.846C818.609 653.742 819.709 654.384 823.286 653.054C823.882 652.825 824.524 652.688 825.074 652.413C827.412 651.359 828.008 651.588 828.65 653.971C828.742 654.338 828.559 655.025 828.283 655.254C823.24 659.104 818.013 662.404 811.272 662.358C805.22 662.313 802.469 656.675 803.111 651.909C803.569 648.379 804.211 644.896 804.899 641.413C805.633 637.7 806.55 633.988 807.329 630.276C807.834 628.076 808.292 625.83 808.705 623.63C808.98 622.163 808.521 621.384 806.825 621.338C803.661 621.201 800.451 620.926 797.288 620.651C795.408 620.467 794.628 621.43 794.261 623.171C792.657 630.642 790.914 638.067 789.401 645.538C788.897 648.059 789.034 650.717 788.897 653.329C789.126 653.513 789.355 653.742 789.539 653.925C791.144 653.284 792.748 652.596 794.445 652.092C795.087 651.909 796.371 651.954 796.462 652.184C796.829 653.192 797.334 654.979 796.875 655.346C791.969 659.333 786.696 662.771 779.91 662.313C776.608 662.083 773.812 659.104 773.536 655.759C773.124 650.304 774.82 645.263 776.104 640.13C777.296 635.225 779.13 630.321 778.488 625.142C778.351 623.905 777.938 622.621 777.388 621.521C777.113 620.971 776.15 620.559 775.508 620.513C771.519 620.421 767.484 620.467 763.495 620.605C762.945 620.605 762.028 621.292 761.89 621.796C761.111 624.913 760.423 628.03 759.873 631.146C759.047 635.5 758.314 639.9 757.672 644.3C757.305 646.775 757.167 649.25 757.03 651.725C756.938 653.284 757.855 654.017 759.368 653.604C760.835 653.238 762.349 652.734 763.724 652.092C764.825 651.588 765.512 651.496 766.154 652.642C766.796 653.696 767.255 654.659 766.063 655.575C762.99 657.913 759.873 660.25 756.067 661.213C753.683 661.808 751.207 662.221 748.731 662.267C744.787 662.313 741.624 658.921 741.44 654.979C741.257 650.259 741.945 645.629 743.183 641.092C744.145 637.471 744.696 633.759 745.429 630.138C745.842 627.984 746.3 625.83 746.713 623.676C747.08 621.842 746.667 621.384 744.741 621.567C741.073 621.934 741.165 621.934 741.211 618.176C741.211 616.251 741.807 615.38 743.779 615.701C744.008 615.747 744.191 615.701 744.421 615.701C748.18 615.701 748.135 615.701 748.318 611.988C748.501 608.642 748.731 605.343 749.097 602.043C749.143 601.447 749.648 600.576 750.152 600.438C754.37 599.201 758.635 597.963 763.082 598.33C763.632 598.376 764.549 599.338 764.549 599.843C764.549 602.593 764.366 605.388 764.091 608.138C764.045 610.155 763.587 612.172 763.22 614.555Z" fill="#7F7F7F"/>
<path d="M660.558 659.333C658.999 667.171 657.944 674.687 657.807 682.387C653.68 683.946 649.599 685.046 645.197 684.954C643.913 684.954 643.088 684.816 643.18 683.304C643.455 679.362 643.684 675.421 644.051 671.479C644.28 669.233 644.83 666.988 645.243 664.788C646.114 660.525 647.169 656.263 647.948 651.954C648.82 647.142 649.553 642.284 650.195 637.425C650.654 633.988 650.837 630.505 651.112 627.067C651.341 624.088 650.149 621.521 648.544 619.184C646.527 616.251 646.527 616.113 650.012 615.747C654.322 615.334 658.632 615.013 662.988 614.692C664.776 614.555 665.555 615.426 665.693 617.167C665.785 618.267 666.197 619.321 666.427 620.421C669.545 618.634 672.387 616.984 675.23 615.426C682.291 611.53 689.307 617.03 691.003 622.942C692.746 628.992 692.241 635.134 691.691 641.184C691.232 646.179 689.857 651.129 686.739 655.163C683.484 659.425 679.265 662.267 673.58 662.496C669.086 662.725 665.051 661.625 660.558 659.333ZM677.477 633.071C677.202 631.421 676.789 629.313 676.468 627.251C676.101 625.142 674.772 623.676 673.075 623.538C670.507 623.355 666.793 625.005 666.473 626.746C665.785 630.367 665.372 633.988 664.73 637.609C664.226 640.45 663.63 643.292 663.125 646.134C662.621 648.929 662.117 651.679 661.704 654.475C661.612 655.025 661.887 656.125 662.162 656.217C664.042 656.629 666.014 657.133 667.894 656.95C670.828 656.675 672.342 654.338 673.534 651.863C676.331 646.134 676.606 639.809 677.477 633.071Z" fill="#FF642F"/>
<path d="M732.362 650.213C732.774 650.763 733.324 651.313 733.691 652C734.196 652.917 734.15 653.742 733.187 654.475C728.831 657.821 724.337 661.029 718.744 661.992C712.462 663.046 706.226 663.229 701.549 657.638C699.486 655.163 697.927 652.504 697.698 649.159C697.514 646.409 696.918 643.659 697.01 640.909C697.331 633.255 699.898 626.334 705.676 621.201C709.573 617.763 714.112 615.38 719.477 614.509C724.246 613.73 728.464 614.463 732.545 616.709C735.525 618.313 737.268 620.971 737.543 624.271C738.139 631.651 734.333 636.738 728.051 639.763C723.971 641.688 719.477 642.788 715.075 643.934C712.324 644.667 711.499 645.354 712.508 648.15C714.388 653.559 717.826 656.446 724.567 653.925C727.226 653.009 729.702 651.542 732.362 650.213ZM712.37 639.075C715.167 639.259 717.322 637.975 719.294 636.417C723.191 633.346 724.246 629.13 724.062 624.409C723.971 622.392 723.604 620.513 721.54 619.734C719.661 619.001 717.368 620.101 716.13 622.392C715.121 624.226 714.342 626.196 713.654 628.167C712.508 631.65 711.866 635.225 712.37 639.075Z" fill="#7F7F7F"/>
<path d="M790.089 588.247C793.757 588.522 797.242 590.905 797.884 593.701C798.709 597.413 796.967 601.309 793.895 603.142C790.41 605.205 786.833 605.847 783.532 603.417C778.213 599.522 780.368 592.143 785.916 589.53C787.246 588.934 788.713 588.659 790.089 588.247Z" fill="#7F7F7F"/>
<path d="M874.047 650.071C874.46 650.621 875.01 651.171 875.377 651.859C875.881 652.776 875.835 653.601 874.872 654.334C870.516 657.68 866.023 660.888 860.429 661.85C854.147 662.905 847.911 663.088 843.234 657.496C841.171 655.021 839.612 652.363 839.383 649.017C839.199 646.267 838.603 643.517 838.695 640.767C839.016 633.113 841.584 626.193 847.361 621.059C851.259 617.622 855.798 615.239 861.162 614.368C865.931 613.589 870.149 614.322 874.23 616.568C877.211 618.172 878.953 620.83 879.228 624.13C879.824 631.509 876.018 636.597 869.737 639.622C865.656 641.547 861.162 642.646 856.761 643.792C854.01 644.526 853.184 645.213 854.193 648.009C856.073 653.417 859.512 656.305 866.252 653.784C868.911 652.821 871.387 651.355 874.047 650.071ZM854.055 638.934C856.852 639.117 859.007 637.834 860.979 636.276C864.876 633.205 865.931 628.988 865.748 624.268C865.656 622.251 865.289 620.372 863.226 619.593C861.346 618.859 859.053 619.959 857.815 622.251C856.807 624.084 856.027 626.055 855.339 628.026C854.193 631.463 853.551 635.038 854.055 638.934Z" fill="#7F7F7F"/>
<path d="M709.848 403.541C738.689 403.541 762.715 427.42 762.624 455.928C762.532 485.215 738.689 509.186 709.848 509.048C680.824 508.911 656.889 484.803 657.073 455.882C657.256 427.099 681.007 403.541 709.848 403.541Z" fill="#FF642F"/>
<path d="M702.008 349C767.851 349 815.308 394.833 817.004 452.628C817.142 456.936 818.655 459.869 821.956 462.069C829.338 467.019 831.447 473.803 829.751 482.328C828.192 490.257 826.037 497.865 820.947 504.281C815.583 511.065 809.53 511.065 804.303 504.19C797.7 495.527 795.133 485.398 795.087 474.673C795.041 469.632 798.021 465.828 802.011 463.261C807.604 459.686 808.659 454.92 808.155 448.732C805.174 409.683 778.351 375.125 741.211 362.887C703.062 350.329 661.566 361.512 635.66 391.395C634.56 392.679 633.551 394.008 632.405 395.245C630.571 397.216 628.461 397.629 626.261 395.841C624.151 394.099 623.739 392.037 625.481 389.791C626.352 388.645 627.315 387.5 628.278 386.354C649.92 361.833 677.156 349.458 702.008 349Z" fill="#535353"/>
<path d="M603.656 436.77C606.132 431.041 605.031 426.87 605.215 422.882C605.398 418.482 605.123 414.037 605.352 409.637C605.444 407.62 604.022 403.908 607.186 404.045C610.029 404.137 608.699 407.849 608.791 409.958C608.974 416.237 608.791 422.562 608.883 428.886C608.929 430.857 608.103 433.057 609.937 434.845C612.78 434.295 611.771 431.957 611.817 430.353C611.955 422.791 611.863 415.228 611.909 407.666C611.909 406.108 611.496 403.77 613.972 403.953C615.944 404.091 615.348 406.245 615.348 407.574C615.394 415.549 615.394 423.524 615.394 431.545C615.394 432.782 615.485 433.974 617.044 435.028C619.245 433.241 618.557 430.857 618.603 428.749C618.695 421.416 618.649 414.037 618.649 406.703C618.649 405.466 618.649 403.908 620.3 403.862C621.996 403.816 622.042 405.42 622.042 406.612C622.042 418.987 622.042 431.407 621.95 443.782C621.905 447.403 619.337 449.557 616.54 451.024C612.184 453.315 611.221 456.661 611.405 461.382C613.055 501.577 641.117 537.693 680.595 550.114C719.936 562.489 763.449 548.602 788.301 515.831C790.41 513.035 792.015 507.123 797.15 510.881C802.469 514.823 797.379 518.398 795.087 521.377C767.255 557.539 720.394 572.206 677.156 558.456C633.826 544.66 604.206 505.336 602.693 459.274C602.555 455.332 601.18 453.04 597.97 451.253C593.66 448.87 592.055 445.295 592.193 440.299C592.514 429.803 592.238 419.307 592.33 408.766C592.33 407.07 591.367 404.045 593.706 403.999C596.732 403.953 595.54 407.162 595.54 408.995C595.677 416.328 595.586 423.707 595.632 431.041C595.632 432.37 595.265 434.478 597.19 434.524C599.346 434.57 598.749 432.416 598.749 431.086C598.841 423.295 598.749 415.549 598.795 407.758C598.795 406.199 598.291 403.724 600.584 403.816C602.647 403.908 602.28 406.337 602.28 407.987C602.326 416.191 602.28 424.395 602.372 432.553C602.372 433.424 602.784 434.157 603.656 436.77Z" fill="#7F7F7F"/>
<path d="M709.665 539.756C675.872 539.435 644.83 518.398 632.588 487.232C631.304 484.023 628.874 480.173 633.918 478.248C638.503 476.507 639.374 480.494 640.658 483.611C653.726 515.51 684.859 533.844 719.202 529.81C720.44 529.673 721.724 529.535 722.962 529.352C725.759 528.985 728.097 529.581 728.693 532.744C729.335 536.273 727.089 537.739 724.062 538.152C719.294 538.839 714.479 539.252 709.665 539.756Z" fill="#7F7F7F"/>
<path d="M710.628 372.787C745.613 374.804 771.336 391.212 786.467 423.616C787.155 425.128 787.705 426.732 788.255 428.336C789.264 431.178 788.484 433.332 785.504 434.341C782.799 435.257 781.011 433.928 780.048 431.499C777.893 426.045 775.6 420.637 772.207 415.778C754.371 390.204 729.932 379.158 698.936 382.779C695.497 383.191 691.783 384.291 691.003 379.433C690.224 374.391 694.442 374.437 697.652 374.025C701.779 373.429 705.951 373.2 710.628 372.787Z" fill="#7F7F7F"/>
<path d="M667.573 394.42C664.822 393.825 662.85 392.358 663.08 389.745C663.492 385.437 667.16 384.016 670.691 383.695C673.259 383.466 674.864 385.804 674.543 388.416C674.084 392.495 670.324 393.091 667.573 394.42Z" fill="#535353"/>
<path d="M756.755 523.21C755.334 526.694 752.491 528.481 749.098 528.664C746.071 528.802 744.467 526.281 745.2 523.531C746.163 519.956 749.327 518.306 752.812 518.352C755.379 518.398 756.526 520.598 756.755 523.21Z" fill="#535353"/>
<path d="M615.164 620.834C617.686 619.184 619.75 617.672 622.042 616.434C628.874 612.676 634.835 613.363 638.916 620.513C640.016 622.484 640.841 624.867 640.979 627.067C641.208 631.467 640.979 635.867 640.704 640.267C640.566 642.513 640.062 644.713 639.466 646.867C636.302 657.959 628.553 664.192 616.815 662.129C614.889 661.808 613.055 660.617 611.175 659.883C610.671 659.7 610.166 659.608 609.525 659.471C609.066 661.9 608.516 664.1 608.332 666.346C607.874 671.158 607.645 675.971 607.186 680.783C607.14 681.425 606.636 682.387 606.086 682.617C602.051 684.358 597.786 685.046 593.385 684.862C592.88 684.862 592.009 683.946 592.009 683.487C592.101 680.462 592.33 677.437 592.651 674.412C592.88 672.258 593.293 670.104 593.66 667.95C594.393 664.054 595.127 660.159 595.907 656.309C596.09 655.392 596.457 654.475 596.732 653.604C596.549 653.467 596.365 653.329 596.182 653.192C595.311 653.879 594.439 654.613 593.568 655.3C588.387 659.563 582.793 662.633 575.823 662.496C572.064 662.45 568.579 659.104 567.478 655.529C565.919 650.534 566.378 645.4 566.286 640.267C566.24 637.242 566.24 637.059 563.168 637.013C557.941 636.967 552.76 637.15 547.533 637.242C544.461 637.288 543.956 639.9 543.085 641.963C541.435 645.996 540.013 650.075 538.546 654.154C538.042 655.529 537.537 656.859 537.17 658.188C536.07 662.358 534.511 663.138 530.568 661.396C527.725 660.159 527.404 659.379 528.78 656.309C531.164 650.9 533.594 645.538 536.07 640.175C538.684 634.538 541.526 628.992 544.094 623.355C547.35 616.159 550.467 608.917 553.631 601.63C554.09 600.53 554.365 599.338 554.686 598.193C555.374 595.763 554.778 593.563 553.494 591.501C551.43 588.155 551.384 588.064 555.419 587.514C560.784 586.78 566.149 586.184 571.513 585.634C573.21 585.451 574.952 585.864 576.649 585.818C578.62 585.818 579.492 587.055 579.767 588.659C580.317 591.868 580.638 595.122 581.051 598.376C582.61 610.934 581.555 623.584 582.059 636.188C582.243 640.817 583.114 645.446 583.939 650.029C584.489 653.054 586.278 653.696 589.029 652.184C591 651.129 592.926 649.846 595.035 649.204C597.328 648.471 597.924 646.821 598.245 644.942C598.795 641.505 599.162 638.067 599.575 634.584C599.804 632.613 600.079 630.642 600.262 628.671C600.629 625.326 599.529 622.346 597.786 619.642C595.723 616.388 595.769 616.113 599.529 615.701C603.426 615.242 607.324 614.922 611.221 614.692C614.018 614.555 614.614 615.197 614.935 617.947C615.027 618.817 615.073 619.596 615.164 620.834ZM625.848 633.621C625.848 632.75 625.848 631.009 625.848 629.313C625.848 628.946 625.848 628.58 625.802 628.259C625.481 624.821 623.28 622.942 620.162 623.676C619.016 623.951 618.007 624.638 616.907 625.051C615.439 625.646 615.073 626.701 614.981 628.213C614.798 631.238 614.522 634.263 613.926 637.242C612.872 642.925 611.542 648.563 610.396 654.2C610.304 654.567 610.442 655.3 610.625 655.346C612.597 655.988 614.614 657.134 616.54 656.95C619.704 656.675 621.675 654.154 622.776 651.359C624.885 645.996 626.169 640.359 625.848 633.621ZM564.223 595.122C558.812 607.176 553.769 618.588 548.633 630.001C549.275 630.23 549.459 630.367 549.642 630.367C554.732 630.413 559.775 630.367 564.865 630.413C566.057 630.413 566.47 629.817 566.47 628.717C566.424 618.359 566.928 608.001 565.415 597.734C565.323 596.955 564.773 596.313 564.223 595.122Z" fill="#FF642F"/>
<path d="M763.22 614.555C764.137 614.647 764.962 614.784 765.787 614.784C779.726 614.784 793.665 614.784 807.604 614.784C809.943 614.784 810.447 614.372 810.539 611.897C810.676 608.826 810.676 605.755 810.676 602.684C810.676 601.493 810.952 600.484 812.235 600.255C816.27 599.522 820.305 598.88 824.34 598.193C825.853 597.918 826.495 598.651 826.358 600.072C826.037 603.876 825.716 607.726 825.395 611.53C825.303 612.492 825.211 613.455 825.12 614.738C836.629 614.738 847.862 614.738 859.417 614.738C859.188 615.517 859.142 616.022 858.867 616.342C856.482 619.184 854.006 621.934 851.668 624.776C850.934 625.646 850.43 626.059 849.192 625.371C841.626 621.063 833.281 621.109 824.936 621.43C824.386 621.43 823.469 622.026 823.377 622.438C822.552 626.242 821.864 630.092 821.222 633.942C820.397 638.755 819.709 643.567 818.93 648.379C818.838 648.884 818.655 649.342 818.655 649.846C818.609 653.742 819.709 654.384 823.286 653.054C823.882 652.825 824.524 652.688 825.074 652.413C827.412 651.359 828.008 651.588 828.65 653.971C828.742 654.338 828.559 655.025 828.283 655.254C823.24 659.104 818.013 662.404 811.272 662.358C805.22 662.313 802.469 656.675 803.111 651.909C803.569 648.379 804.211 644.896 804.899 641.413C805.633 637.7 806.55 633.988 807.329 630.276C807.834 628.076 808.292 625.83 808.705 623.63C808.98 622.163 808.521 621.384 806.825 621.338C803.661 621.201 800.451 620.926 797.288 620.651C795.408 620.467 794.628 621.43 794.261 623.171C792.657 630.642 790.914 638.067 789.401 645.538C788.897 648.059 789.034 650.717 788.897 653.329C789.126 653.513 789.355 653.742 789.539 653.925C791.144 653.284 792.748 652.596 794.445 652.092C795.087 651.909 796.371 651.954 796.462 652.184C796.829 653.192 797.334 654.979 796.875 655.346C791.969 659.333 786.696 662.771 779.91 662.313C776.608 662.083 773.812 659.104 773.536 655.759C773.124 650.304 774.82 645.263 776.104 640.13C777.296 635.225 779.13 630.321 778.488 625.142C778.351 623.905 777.938 622.621 777.388 621.521C777.113 620.971 776.15 620.559 775.508 620.513C771.519 620.421 767.484 620.467 763.495 620.605C762.945 620.605 762.028 621.292 761.89 621.796C761.111 624.913 760.423 628.03 759.873 631.146C759.047 635.5 758.314 639.9 757.672 644.3C757.305 646.775 757.167 649.25 757.03 651.725C756.938 653.284 757.855 654.017 759.368 653.604C760.835 653.238 762.349 652.734 763.724 652.092C764.825 651.588 765.512 651.496 766.154 652.642C766.796 653.696 767.255 654.659 766.063 655.575C762.99 657.913 759.873 660.25 756.067 661.213C753.683 661.808 751.207 662.221 748.731 662.267C744.787 662.313 741.624 658.921 741.44 654.979C741.257 650.259 741.945 645.629 743.183 641.092C744.145 637.471 744.696 633.759 745.429 630.138C745.842 627.984 746.3 625.83 746.713 623.676C747.08 621.842 746.667 621.384 744.741 621.567C741.073 621.934 741.165 621.934 741.211 618.176C741.211 616.251 741.807 615.38 743.779 615.701C744.008 615.747 744.191 615.701 744.421 615.701C748.18 615.701 748.135 615.701 748.318 611.988C748.501 608.642 748.731 605.343 749.097 602.043C749.143 601.447 749.648 600.576 750.152 600.438C754.37 599.201 758.635 597.963 763.082 598.33C763.632 598.376 764.549 599.338 764.549 599.843C764.549 602.593 764.366 605.388 764.091 608.138C764.045 610.155 763.587 612.172 763.22 614.555Z" fill="#7F7F7F"/>
<path d="M660.558 659.333C658.999 667.171 657.944 674.687 657.807 682.387C653.68 683.946 649.599 685.046 645.197 684.954C643.913 684.954 643.088 684.816 643.18 683.304C643.455 679.362 643.684 675.421 644.051 671.479C644.28 669.233 644.83 666.988 645.243 664.788C646.114 660.525 647.169 656.263 647.948 651.954C648.82 647.142 649.553 642.284 650.195 637.425C650.654 633.988 650.837 630.505 651.112 627.067C651.341 624.088 650.149 621.521 648.544 619.184C646.527 616.251 646.527 616.113 650.012 615.747C654.322 615.334 658.632 615.013 662.988 614.692C664.776 614.555 665.555 615.426 665.693 617.167C665.785 618.267 666.197 619.321 666.427 620.421C669.545 618.634 672.387 616.984 675.23 615.426C682.291 611.53 689.307 617.03 691.003 622.942C692.746 628.992 692.241 635.134 691.691 641.184C691.232 646.179 689.857 651.129 686.739 655.163C683.484 659.425 679.265 662.267 673.58 662.496C669.086 662.725 665.051 661.625 660.558 659.333ZM677.477 633.071C677.202 631.421 676.789 629.313 676.468 627.251C676.101 625.142 674.772 623.676 673.075 623.538C670.507 623.355 666.793 625.005 666.473 626.746C665.785 630.367 665.372 633.988 664.73 637.609C664.226 640.45 663.63 643.292 663.125 646.134C662.621 648.929 662.117 651.679 661.704 654.475C661.612 655.025 661.887 656.125 662.162 656.217C664.042 656.629 666.014 657.133 667.894 656.95C670.828 656.675 672.342 654.338 673.534 651.863C676.331 646.134 676.606 639.809 677.477 633.071Z" fill="#FF642F"/>
<path d="M732.362 650.213C732.774 650.763 733.324 651.313 733.691 652C734.196 652.917 734.15 653.742 733.187 654.475C728.831 657.821 724.337 661.029 718.744 661.992C712.462 663.046 706.226 663.229 701.549 657.638C699.486 655.163 697.927 652.504 697.698 649.159C697.514 646.409 696.918 643.659 697.01 640.909C697.331 633.255 699.898 626.334 705.676 621.201C709.573 617.763 714.112 615.38 719.477 614.509C724.246 613.73 728.464 614.463 732.545 616.709C735.525 618.313 737.268 620.971 737.543 624.271C738.139 631.651 734.333 636.738 728.051 639.763C723.971 641.688 719.477 642.788 715.075 643.934C712.324 644.667 711.499 645.354 712.508 648.15C714.388 653.559 717.826 656.446 724.567 653.925C727.226 653.009 729.702 651.542 732.362 650.213ZM712.37 639.075C715.167 639.259 717.322 637.975 719.294 636.417C723.191 633.346 724.246 629.13 724.062 624.409C723.971 622.392 723.604 620.513 721.54 619.734C719.661 619.001 717.368 620.101 716.13 622.392C715.121 624.226 714.342 626.196 713.654 628.167C712.508 631.65 711.866 635.225 712.37 639.075Z" fill="#7F7F7F"/>
<path d="M790.089 588.247C793.757 588.522 797.242 590.905 797.884 593.701C798.709 597.413 796.967 601.309 793.895 603.142C790.41 605.205 786.833 605.847 783.532 603.417C778.213 599.522 780.368 592.143 785.916 589.53C787.246 588.934 788.713 588.659 790.089 588.247Z" fill="#7F7F7F"/>
<path d="M874.047 650.071C874.46 650.621 875.01 651.171 875.377 651.859C875.881 652.776 875.835 653.601 874.872 654.334C870.516 657.68 866.023 660.888 860.429 661.85C854.147 662.905 847.911 663.088 843.234 657.496C841.171 655.021 839.612 652.363 839.383 649.017C839.199 646.267 838.603 643.517 838.695 640.767C839.016 633.113 841.584 626.193 847.361 621.059C851.259 617.622 855.798 615.239 861.162 614.368C865.931 613.589 870.149 614.322 874.23 616.568C877.211 618.172 878.953 620.83 879.228 624.13C879.824 631.509 876.018 636.597 869.737 639.622C865.656 641.547 861.162 642.646 856.761 643.792C854.01 644.526 853.184 645.213 854.193 648.009C856.073 653.417 859.512 656.305 866.252 653.784C868.911 652.821 871.387 651.355 874.047 650.071ZM854.055 638.934C856.852 639.117 859.007 637.834 860.979 636.276C864.876 633.205 865.931 628.988 865.748 624.268C865.656 622.251 865.289 620.372 863.226 619.593C861.346 618.859 859.053 619.959 857.815 622.251C856.807 624.084 856.027 626.055 855.339 628.026C854.193 631.463 853.551 635.038 854.055 638.934Z" fill="#7F7F7F"/>
</g>
<path d="M489.86 452.109C475.316 440.521 462.436 427.171 452.038 412.907C441.641 398.643 433.953 383.777 429.464 369.254C424.975 354.732 423.783 340.869 425.963 328.548C428.143 316.227 433.648 305.717 442.128 297.686C450.608 289.655 461.878 284.279 475.221 281.899C488.563 279.518 503.688 280.187 519.633 283.86C535.577 287.534 551.993 294.134 567.838 303.239C583.683 312.344 594.534 317.038 607.594 330.032L575.061 328.022L579.516 350.108L550.193 341.126L568.646 370.235L532.11 358.828L550.46 388.827L517.982 371.223L519.241 391.017L495.759 369.849L507.308 406.41L482.586 397.713L496.815 429.959L479.816 423.707L489.86 452.109Z" fill="url(#paint0_linear_56_261)"/>
<path d="M798.011 327.396C808.886 315.056 824.052 309.528 837.658 301.454C851.265 293.379 865.538 287.949 879.571 285.508C893.604 283.067 907.09 283.669 919.172 287.275C931.254 290.881 941.667 297.413 949.75 306.455C957.833 315.497 963.409 326.852 966.124 339.798C968.838 352.744 968.632 366.998 965.518 381.654C962.405 396.31 956.451 411.048 948.037 424.93C939.622 438.813 934.328 444.103 922.038 454.86L919.87 435.635L919.631 421.676L895.715 431.017L910.912 403.292L884.153 400.476L896.603 381.906L863.244 387.561L877.233 367.924L851.802 367.993L862.183 351.311L829.831 362.648L844.186 340.741L822.334 342.151L823.277 327.826L798.011 327.396Z" fill="url(#paint1_linear_56_261)"/>
<defs>
<linearGradient id="paint0_linear_56_261" x1="483.056" y1="285.627" x2="463.466" y2="431.606" gradientUnits="userSpaceOnUse">
<stop stop-color="white"/>
<stop offset="1" stop-color="#EEEEEE"/>
</linearGradient>
<linearGradient id="paint1_linear_56_261" x1="830.928" y1="311.908" x2="937.886" y2="423.752" gradientUnits="userSpaceOnUse">
<stop stop-color="white"/>
<stop offset="0.927083" stop-color="#EEEEEE"/>
</linearGradient>
<clipPath id="clip0_56_261">
<rect width="362" height="336" fill="white" transform="translate(528 349)"/>
</clipPath>
</defs>
</svg>
