<svg width="1411" height="361" viewBox="0 0 1411 361" fill="none" xmlns="http://www.w3.org/2000/svg">
<path d="M659.958 144.832C666.295 140.686 671.479 136.885 677.24 133.776C694.407 124.332 709.385 126.06 719.639 144.026C722.404 148.978 724.478 154.966 724.824 160.494C725.4 171.55 724.824 182.606 724.132 193.662C723.787 199.306 722.519 204.834 721.022 210.246C713.072 238.117 693.6 253.779 664.105 248.597C659.266 247.791 654.658 244.796 649.934 242.954C648.667 242.493 647.399 242.263 645.786 241.917C644.634 248.021 643.252 253.549 642.791 259.192C641.639 271.285 641.062 283.377 639.91 295.47C639.795 297.082 638.528 299.501 637.145 300.076C627.006 304.453 616.291 306.18 605.231 305.72C603.963 305.72 601.774 303.416 601.774 302.265C602.005 294.664 602.581 287.063 603.387 279.462C603.963 274.049 605 268.636 605.922 263.223C607.765 253.434 609.609 243.645 611.567 233.971C612.028 231.667 612.95 229.364 613.641 227.176C613.18 226.83 612.72 226.485 612.259 226.139C610.07 227.867 607.881 229.71 605.692 231.437C592.672 242.148 578.616 249.864 561.103 249.518C551.656 249.403 542.899 240.996 540.134 232.013C536.217 219.46 537.369 206.561 537.139 193.662C537.023 186.061 537.023 185.601 529.304 185.486C516.17 185.37 503.15 185.831 490.016 186.061C482.296 186.177 481.029 192.741 478.84 197.924C474.692 208.058 471.121 218.308 467.434 228.558C466.166 232.013 464.899 235.353 463.977 238.693C461.212 249.173 457.295 251.131 447.386 246.754C440.243 243.645 439.437 241.687 442.893 233.971C448.884 220.381 454.991 206.907 461.212 193.432C467.779 179.267 474.923 165.331 481.375 151.166C489.555 133.085 497.39 114.888 505.339 96.577C506.492 93.813 507.183 90.8187 507.989 87.9395C509.718 81.8357 508.22 76.3077 504.994 71.1252C499.809 62.718 499.694 62.4877 509.833 61.1057C523.313 59.263 536.793 57.7659 550.273 56.3839C554.536 55.9232 558.914 56.9597 563.177 56.8445C568.131 56.8445 570.321 59.954 571.012 63.9849C572.394 72.0465 573.201 80.2233 574.238 88.4002C578.155 119.956 575.505 151.742 576.773 183.413C577.233 195.044 579.423 206.676 581.496 218.193C582.879 225.794 587.372 227.406 594.285 223.606C599.239 220.957 604.078 217.732 609.378 216.12C615.139 214.277 616.637 210.131 617.443 205.409C618.826 196.772 619.748 188.134 620.785 179.382C621.361 174.43 622.052 169.477 622.513 164.525C623.435 156.118 620.669 148.632 616.291 141.837C611.107 133.661 611.222 132.97 620.669 131.933C630.463 130.781 640.256 129.975 650.049 129.399C657.077 129.054 658.575 130.666 659.382 137.576C659.612 139.764 659.727 141.722 659.958 144.832ZM686.803 176.963C686.803 174.775 686.803 170.399 686.803 166.138C686.803 165.216 686.803 164.295 686.688 163.489C685.881 154.851 680.351 150.129 672.516 151.972C669.636 152.663 667.101 154.391 664.336 155.427C660.649 156.924 659.727 159.573 659.497 163.374C659.036 170.975 658.345 178.576 656.847 186.061C654.197 200.342 650.856 214.508 647.975 228.673C647.745 229.594 648.091 231.437 648.551 231.552C653.506 233.165 658.575 236.044 663.414 235.583C671.364 234.892 676.318 228.558 679.083 221.533C684.383 208.058 687.609 193.893 686.803 176.963ZM531.954 80.2233C518.359 110.512 505.685 139.189 492.781 167.865C494.394 168.441 494.855 168.786 495.316 168.786C508.105 168.902 520.778 168.786 533.567 168.902C536.563 168.902 537.6 167.404 537.6 164.64C537.484 138.613 538.752 112.585 534.95 86.7878C534.719 84.83 533.337 83.2177 531.954 80.2233Z" fill="#FF642F"/>
<path d="M1031.99 129.054C1034.29 129.285 1036.36 129.63 1038.44 129.63C1073.46 129.63 1108.49 129.63 1143.51 129.63C1149.39 129.63 1150.66 128.594 1150.89 122.375C1151.23 114.659 1151.23 106.942 1151.23 99.2262C1151.23 96.2318 1151.93 93.6982 1155.15 93.1223C1165.29 91.2797 1175.43 89.6673 1185.57 87.9398C1189.37 87.2488 1190.98 89.0915 1190.64 92.6617C1189.83 102.22 1189.02 111.894 1188.22 121.453C1187.99 123.872 1187.76 126.29 1187.53 129.515C1216.45 129.515 1244.67 129.515 1273.71 129.515C1273.13 131.473 1273.02 132.74 1272.32 133.546C1266.33 140.686 1260.11 147.596 1254.24 154.736C1252.39 156.925 1251.12 157.961 1248.01 156.234C1229 145.408 1208.03 145.523 1187.07 146.329C1185.68 146.329 1183.38 147.826 1183.15 148.863C1181.07 158.422 1179.35 168.096 1177.73 177.77C1175.66 189.862 1173.93 201.955 1171.97 214.047C1171.74 215.314 1171.28 216.466 1171.28 217.733C1171.17 227.522 1173.93 229.134 1182.92 225.794C1184.42 225.218 1186.03 224.873 1187.41 224.182C1193.29 221.533 1194.78 222.109 1196.4 228.098C1196.63 229.019 1196.17 230.746 1195.48 231.322C1182.8 240.996 1169.67 249.288 1152.73 249.173C1137.52 249.058 1130.61 234.892 1132.22 222.915C1133.38 214.047 1134.99 205.295 1136.72 196.542C1138.56 187.213 1140.86 177.885 1142.82 168.556C1144.09 163.028 1145.24 157.385 1146.28 151.857C1146.97 148.172 1145.82 146.214 1141.56 146.099C1133.61 145.753 1125.54 145.062 1117.59 144.371C1112.87 143.911 1110.91 146.329 1109.99 150.706C1105.95 169.478 1101.58 188.135 1097.77 206.907C1096.51 213.241 1096.85 219.921 1096.51 226.485C1097.08 226.946 1097.66 227.522 1098.12 227.982C1102.15 226.37 1106.18 224.643 1110.45 223.376C1112.06 222.915 1115.29 223.03 1115.52 223.606C1116.44 226.14 1117.71 230.631 1116.55 231.553C1104.23 241.572 1090.98 250.21 1073.92 249.058C1065.63 248.482 1058.6 240.996 1057.91 232.589C1056.87 218.884 1061.14 206.216 1064.36 193.317C1067.36 180.994 1071.97 168.672 1070.35 155.658C1070.01 152.548 1068.97 149.324 1067.59 146.56C1066.9 145.178 1064.48 144.141 1062.86 144.026C1052.84 143.796 1042.7 143.911 1032.68 144.256C1031.3 144.256 1028.99 145.984 1028.65 147.251C1026.69 155.082 1024.96 162.913 1023.58 170.745C1021.5 181.685 1019.66 192.741 1018.05 203.797C1017.12 210.016 1016.78 216.235 1016.43 222.454C1016.2 226.37 1018.51 228.213 1022.31 227.176C1026 226.255 1029.8 224.988 1033.25 223.376C1036.02 222.109 1037.75 221.879 1039.36 224.758C1040.97 227.407 1042.13 229.825 1039.13 232.128C1031.41 238.002 1023.58 243.875 1014.01 246.294C1008.02 247.791 1001.8 248.828 995.578 248.943C985.67 249.058 977.72 240.536 977.259 230.631C976.798 218.769 978.527 207.137 981.638 195.736C984.057 186.638 985.44 177.309 987.283 168.211C988.32 162.798 989.472 157.385 990.509 151.972C991.431 147.366 990.394 146.214 985.555 146.675C976.338 147.596 976.568 147.596 976.683 138.152C976.683 133.315 978.181 131.127 983.135 131.933C983.711 132.049 984.172 131.933 984.748 131.933C994.196 131.933 994.081 131.934 994.542 122.605C995.002 114.198 995.579 105.906 996.5 97.6138C996.615 96.1167 997.883 93.9285 999.15 93.583C1009.75 90.4735 1020.46 87.364 1031.64 88.2854C1033.02 88.4005 1035.33 90.819 1035.33 92.0858C1035.33 98.9958 1034.87 106.021 1034.18 112.931C1034.06 117.998 1032.91 123.066 1031.99 129.054Z" fill="#7F7F7F"/>
<path d="M774.02 241.572C770.103 261.266 767.453 280.153 767.107 299.501C756.738 303.417 746.484 306.181 735.423 305.95C732.197 305.95 730.123 305.605 730.354 301.804C731.045 291.9 731.621 281.996 732.543 272.091C733.119 266.448 734.502 260.805 735.539 255.277C737.728 244.566 740.378 233.856 742.336 223.03C744.525 210.938 746.369 198.73 747.982 186.522C749.134 177.885 749.595 169.132 750.286 160.495C750.862 153.009 747.867 146.56 743.834 140.686C738.765 133.315 738.765 132.97 747.521 132.049C758.351 131.012 769.181 130.206 780.127 129.4C784.62 129.054 786.579 131.242 786.924 135.619C787.155 138.383 788.192 141.032 788.768 143.796C796.602 139.304 803.746 135.158 810.889 131.242C828.632 121.453 846.26 135.273 850.523 150.13C854.901 165.332 853.634 180.764 852.251 195.966C851.099 208.519 847.642 220.957 839.808 231.092C831.628 241.802 821.028 248.943 806.741 249.519C795.45 250.094 785.311 247.33 774.02 241.572ZM816.534 175.582C815.843 171.436 814.806 166.138 814 160.955C813.078 155.658 809.737 151.972 805.474 151.627C799.022 151.166 789.689 155.312 788.883 159.689C787.155 168.787 786.118 177.885 784.505 186.983C783.237 194.123 781.74 201.264 780.472 208.404C779.205 215.429 777.938 222.339 776.901 229.364C776.67 230.746 777.361 233.51 778.053 233.741C782.777 234.777 787.731 236.044 792.455 235.583C799.828 234.892 803.63 229.019 806.626 222.8C813.654 208.404 814.345 192.511 816.534 175.582Z" fill="#FF642F"/>
<path d="M954.447 218.654C955.484 220.036 956.866 221.418 957.788 223.145C959.055 225.449 958.94 227.522 956.521 229.364C945.575 237.771 934.284 245.833 920.228 248.252C904.444 250.9 888.774 251.361 877.022 237.311C871.838 231.092 867.92 224.412 867.344 216.005C866.884 209.095 865.386 202.185 865.616 195.275C866.423 176.042 872.875 158.652 887.392 145.753C897.185 137.116 908.591 131.127 922.071 128.939C934.054 126.981 944.654 128.824 954.908 134.467C962.397 138.498 966.775 145.178 967.466 153.47C968.964 172.011 959.401 184.795 943.617 192.396C933.363 197.233 922.071 199.997 911.011 202.876C904.098 204.719 902.024 206.446 904.559 213.471C909.283 227.061 917.924 234.316 934.86 227.982C941.543 225.679 947.764 221.994 954.447 218.654ZM904.213 190.668C911.241 191.129 916.656 187.904 921.611 183.989C931.404 176.273 934.054 165.677 933.593 153.815C933.363 148.748 932.441 144.026 927.256 142.068C922.532 140.225 916.772 142.989 913.661 148.748C911.126 153.354 909.167 158.307 907.439 163.259C904.559 172.011 902.946 180.994 904.213 190.668Z" fill="#7F7F7F"/>
<path d="M1099.5 62.9485C1108.72 63.6395 1117.48 69.6281 1119.09 76.6533C1121.16 85.9818 1116.78 95.771 1109.07 100.378C1100.31 105.56 1091.32 107.172 1083.03 101.069C1069.66 91.2794 1075.08 72.7376 1089.02 66.1731C1092.36 64.676 1096.05 63.985 1099.5 62.9485Z" fill="#7F7F7F"/>
<path d="M1320.88 215.775C1321.92 217.157 1323.3 218.539 1324.23 220.266C1325.49 222.57 1325.38 224.643 1322.96 226.485C1312.01 234.892 1300.72 242.954 1286.67 245.372C1270.88 248.021 1255.21 248.482 1243.46 234.432C1238.28 228.213 1234.36 221.533 1233.78 213.126C1233.32 206.216 1231.82 199.306 1232.05 192.396C1232.86 173.163 1239.31 155.773 1253.83 142.874C1263.62 134.237 1275.03 128.248 1288.51 126.06C1300.49 124.102 1311.09 125.945 1321.35 131.588C1328.83 135.619 1333.21 142.298 1333.9 150.59C1335.4 169.132 1325.84 181.916 1310.05 189.517C1299.8 194.354 1288.51 197.118 1277.45 199.997C1270.54 201.84 1268.46 203.567 1271 210.592C1275.72 224.182 1284.36 231.437 1301.3 225.103C1307.98 222.685 1314.2 218.999 1320.88 215.775ZM1270.65 187.789C1277.68 188.25 1283.09 185.025 1288.05 181.11C1297.84 173.393 1300.49 162.798 1300.03 150.936C1299.8 145.869 1298.88 141.147 1293.69 139.189C1288.97 137.346 1283.21 140.11 1280.1 145.869C1277.56 150.475 1275.6 155.427 1273.88 160.38C1271 169.017 1269.38 178 1270.65 187.789Z" fill="#7F7F7F"/>
<path d="M242.141 119.542C275.741 119.542 303.732 147.361 303.626 180.574C303.519 214.694 275.741 242.62 242.141 242.46C208.326 242.3 180.442 214.213 180.656 180.52C180.869 146.987 208.54 119.542 242.141 119.542Z" fill="#FF642F"/>
<path d="M233.006 56C309.716 56 365.004 109.396 366.98 176.729C367.141 181.749 368.904 185.166 372.75 187.729C381.35 193.496 383.807 201.398 381.831 211.33C380.015 220.568 377.504 229.432 371.574 236.907C365.324 244.81 358.273 244.81 352.183 236.8C344.491 226.708 341.5 214.908 341.446 202.413C341.393 196.539 344.865 192.107 349.513 189.117C356.03 184.952 357.258 179.399 356.671 172.191C353.198 126.697 321.948 86.436 278.679 72.1791C234.235 57.5485 185.891 70.5772 155.709 105.392C154.427 106.887 153.252 108.435 151.916 109.877C149.78 112.173 147.322 112.654 144.758 110.571C142.301 108.542 141.82 106.139 143.85 103.523C144.865 102.188 145.987 100.853 147.109 99.5181C172.322 70.951 204.053 56.534 233.006 56Z" fill="#535353"/>
<path d="M118.423 158.254C121.308 151.579 120.026 146.72 120.239 142.075C120.453 136.949 120.133 131.769 120.4 126.643C120.507 124.294 118.851 119.969 122.536 120.129C125.848 120.236 124.299 124.561 124.406 127.017C124.62 134.332 124.406 141.701 124.513 149.07C124.566 151.366 123.605 153.929 125.742 156.011C129.054 155.37 127.878 152.647 127.932 150.778C128.092 141.968 127.985 133.157 128.039 124.347C128.039 122.532 127.558 119.808 130.442 120.022C132.739 120.182 132.045 122.692 132.045 124.24C132.098 133.531 132.098 142.822 132.098 152.167C132.098 153.608 132.205 154.997 134.022 156.225C136.586 154.142 135.784 151.366 135.838 148.909C135.945 140.366 135.891 131.769 135.891 123.226C135.891 121.784 135.891 119.969 137.814 119.915C139.791 119.862 139.844 121.731 139.844 123.119C139.844 137.536 139.844 152.006 139.737 166.423C139.684 170.642 136.692 173.151 133.434 174.86C128.359 177.53 127.237 181.428 127.451 186.928C129.374 233.756 162.066 275.833 208.06 290.303C253.893 304.72 304.588 288.541 333.541 250.363C335.998 247.105 337.868 240.217 343.85 244.596C350.047 249.188 344.118 253.353 341.447 256.824C309.021 298.953 254.427 316.04 204.054 300.021C153.573 283.949 119.064 238.135 117.301 184.471C117.141 179.879 115.539 177.21 111.799 175.127C106.778 172.35 104.908 168.186 105.069 162.365C105.442 150.138 105.122 137.91 105.229 125.629C105.229 123.653 104.107 120.129 106.831 120.075C110.357 120.022 108.968 123.76 108.968 125.896C109.128 134.439 109.022 143.036 109.075 151.579C109.075 153.128 108.648 155.584 110.891 155.637C113.402 155.691 112.707 153.181 112.707 151.633C112.814 142.555 112.707 133.531 112.761 124.454C112.761 122.638 112.173 119.755 114.844 119.862C117.248 119.969 116.821 122.799 116.821 124.721C116.874 134.279 116.821 143.837 116.928 153.341C116.928 154.356 117.408 155.21 118.423 158.254Z" fill="#7F7F7F"/>
<path d="M241.927 278.236C202.557 277.862 166.393 253.353 152.13 217.043C150.634 213.306 147.803 208.82 153.679 206.578C159.021 204.549 160.036 209.194 161.532 212.825C176.756 249.989 213.028 271.348 253.038 266.649C254.48 266.488 255.976 266.328 257.419 266.115C260.677 265.688 263.401 266.382 264.096 270.066C264.844 274.178 262.226 275.886 258.701 276.367C253.145 277.168 247.536 277.648 241.927 278.236Z" fill="#7F7F7F"/>
<path d="M243.049 83.7126C283.808 86.0621 313.776 105.178 331.404 142.929C332.205 144.691 332.846 146.56 333.487 148.429C334.662 151.74 333.754 154.249 330.282 155.424C327.13 156.492 325.047 154.943 323.925 152.113C321.415 145.759 318.744 139.459 314.791 133.798C294.011 104.003 265.539 91.1347 229.427 95.3531C225.421 95.8336 221.094 97.1151 220.186 91.4551C219.278 85.5815 224.192 85.6349 227.932 85.1543C232.739 84.4602 237.601 84.1932 243.049 83.7126Z" fill="#7F7F7F"/>
<path d="M192.889 108.916C189.684 108.222 187.387 106.513 187.654 103.47C188.135 98.4503 192.408 96.795 196.521 96.4212C199.513 96.1542 201.383 98.8774 201.009 101.921C200.474 106.673 196.094 107.367 192.889 108.916Z" fill="#535353"/>
<path d="M296.788 258.96C295.132 263.018 291.82 265.101 287.867 265.314C284.341 265.474 282.472 262.537 283.327 259.334C284.448 255.169 288.134 253.247 292.194 253.3C295.185 253.353 296.521 255.916 296.788 258.96Z" fill="#535353"/>
</svg>
