<svg width="278" height="250" viewBox="0 0 278 250" fill="none" xmlns="http://www.w3.org/2000/svg">
<path d="M137.141 63.5415C170.741 63.5415 198.732 91.361 198.626 124.574C198.519 158.694 170.741 186.62 137.141 186.46C103.326 186.3 75.4418 158.213 75.6555 124.52C75.8692 90.9873 103.54 63.5415 137.141 63.5415Z" fill="#FF642F"/>
<path d="M128.006 0C204.716 0 260.004 53.3964 261.98 120.729C262.141 125.749 263.904 129.166 267.75 131.729C276.35 137.496 278.807 145.398 276.831 155.33C275.015 164.568 272.504 173.432 266.574 180.907C260.324 188.81 253.273 188.81 247.183 180.8C239.491 170.708 236.5 158.908 236.446 146.413C236.393 140.539 239.865 136.107 244.513 133.117C251.03 128.952 252.258 123.399 251.671 116.191C248.198 70.6969 216.948 30.436 173.679 16.1791C129.235 1.5485 80.8908 14.5772 50.7092 49.3917C49.4271 50.8868 48.2519 52.4353 46.9165 53.877C44.7797 56.173 42.3225 56.6536 39.7584 54.5711C37.3011 52.5421 36.8203 50.1392 38.8502 47.5228C39.8652 46.1879 40.987 44.853 42.1088 43.5181C67.3224 14.951 99.0532 0.533964 128.006 0Z" fill="#535353"/>
<path d="M13.4232 102.254C16.3078 95.5792 15.0258 90.7202 15.2395 86.0747C15.4531 80.9486 15.1326 75.7692 15.3997 70.6431C15.5066 68.2937 13.8506 63.9686 17.5365 64.1288C20.8484 64.2355 19.2993 68.5607 19.4061 71.0169C19.6198 78.3322 19.4061 85.7009 19.513 93.0696C19.5664 95.3657 18.6049 97.9287 20.7416 100.011C24.0536 99.3704 22.8784 96.6472 22.9318 94.7783C23.092 85.9679 22.9852 77.1575 23.0386 68.3471C23.0386 66.5316 22.5578 63.8084 25.4425 64.022C27.7395 64.1821 27.045 66.6918 27.045 68.2403C27.0984 77.5313 27.0984 86.8222 27.0984 96.1666C27.0984 97.6083 27.2053 98.9966 29.0215 100.225C31.5856 98.1423 30.7843 95.3657 30.8378 92.9094C30.9446 84.366 30.8912 75.7692 30.8912 67.2257C30.8912 65.784 30.8912 63.9686 32.8142 63.9152C34.7907 63.8618 34.8442 65.7306 34.8442 67.119C34.8442 81.536 34.8442 96.0064 34.7373 110.423C34.6839 114.642 31.6925 117.151 28.4339 118.86C23.3591 121.53 22.2373 125.428 22.451 130.928C24.3741 177.756 57.0664 219.833 103.06 234.303C148.893 248.72 199.588 232.541 228.541 194.363C230.998 191.105 232.868 184.217 238.85 188.596C245.047 193.188 239.118 197.353 236.447 200.824C204.021 242.953 149.427 260.04 99.0535 244.021C48.5728 227.949 14.0643 182.135 12.3014 128.471C12.1412 123.879 10.5386 121.21 6.79931 119.127C1.77794 116.35 -0.091717 112.186 0.0685393 106.365C0.442471 94.1375 0.121957 81.9098 0.228794 69.6286C0.228794 67.6529 -0.892999 64.1288 1.83136 64.0754C5.357 64.022 3.96811 67.7597 3.96811 69.8956C4.12836 78.439 4.02153 87.0358 4.07495 95.5792C4.07495 97.1277 3.6476 99.584 5.89119 99.6374C8.40187 99.6908 7.70743 97.1811 7.70743 95.6326C7.81426 86.5552 7.70742 77.5313 7.76084 68.4539C7.76084 66.6384 7.17324 63.755 9.84417 63.8618C12.248 63.9686 11.8207 66.7986 11.8207 68.7208C11.8741 78.2788 11.8207 87.8368 11.9275 97.3413C11.9275 98.3559 12.4083 99.2102 13.4232 102.254Z" fill="#7F7F7F"/>
<path d="M136.927 222.236C97.5574 221.862 61.3929 197.353 47.1301 161.044C45.6344 157.306 42.8032 152.821 48.6793 150.578C54.0211 148.549 55.0361 153.194 56.5318 156.825C71.7562 193.989 108.028 215.348 148.038 210.649C149.48 210.489 150.976 210.329 152.419 210.115C155.677 209.688 158.401 210.382 159.096 214.066C159.844 218.178 157.226 219.886 153.701 220.367C148.145 221.168 142.536 221.649 136.927 222.236Z" fill="#7F7F7F"/>
<path d="M138.049 27.7129C178.808 30.0623 208.776 49.1783 226.404 86.9295C227.205 88.6916 227.846 90.5605 228.487 92.4293C229.662 95.7399 228.754 98.2496 225.282 99.4243C222.13 100.492 220.047 98.9437 218.925 96.1137C216.415 89.7595 213.744 83.4587 209.791 77.7987C189.011 48.0035 160.539 35.135 124.427 39.3533C120.421 39.8339 116.094 41.1154 115.186 35.4554C114.278 29.5818 119.192 29.6352 122.932 29.1546C127.739 28.4604 132.601 28.1935 138.049 27.7129Z" fill="#7F7F7F"/>
<path d="M87.889 52.9157C84.6838 52.2216 82.3868 50.5129 82.6539 47.4693C83.1347 42.45 87.4082 40.7947 91.5214 40.421C94.5129 40.154 96.3825 42.8772 96.0086 45.9208C95.4744 50.6731 91.0941 51.3672 87.889 52.9157Z" fill="#535353"/>
<path d="M191.788 202.96C190.132 207.018 186.82 209.101 182.867 209.314C179.341 209.474 177.472 206.537 178.327 203.334C179.448 199.169 183.134 197.247 187.194 197.3C190.185 197.353 191.521 199.916 191.788 202.96Z" fill="#535353"/>
</svg>
