<svg width="895" height="250" viewBox="0 0 895 250" fill="none" xmlns="http://www.w3.org/2000/svg">
<path d="M219.958 88.8318C226.295 84.6858 231.479 80.8853 237.24 77.7758C254.407 68.3321 269.385 70.0597 279.639 88.0257C282.404 92.9778 284.478 98.9664 284.824 104.494C285.4 115.55 284.824 126.606 284.132 137.662C283.787 143.306 282.519 148.834 281.022 154.246C273.072 182.117 253.6 197.779 224.105 192.597C219.266 191.791 214.658 188.796 209.934 186.954C208.667 186.493 207.399 186.263 205.786 185.917C204.634 192.021 203.252 197.549 202.791 203.192C201.639 215.285 201.062 227.377 199.91 239.47C199.795 241.082 198.528 243.501 197.145 244.076C187.006 248.453 176.291 250.18 165.231 249.72C163.963 249.72 161.774 247.416 161.774 246.265C162.005 238.664 162.581 231.063 163.387 223.462C163.963 218.049 165 212.636 165.922 207.223C167.765 197.434 169.609 187.645 171.567 177.971C172.028 175.667 172.95 173.364 173.641 171.176C173.18 170.83 172.72 170.485 172.259 170.139C170.07 171.867 167.881 173.71 165.692 175.437C152.672 186.148 138.616 193.864 121.103 193.518C111.656 193.403 102.899 184.996 100.134 176.013C96.217 163.46 97.3691 150.561 97.1387 137.662C97.0235 130.061 97.0235 129.601 89.3041 129.486C76.1696 129.37 63.1503 129.831 50.0158 130.061C42.2964 130.177 41.0291 136.741 38.84 141.924C34.6923 152.058 31.1206 162.308 27.4337 172.558C26.1664 176.013 24.899 179.353 23.9773 182.693C21.2121 193.173 17.2948 195.131 7.38635 190.754C0.243029 187.645 -0.563474 185.687 2.89297 177.971C8.88414 164.381 14.9905 150.907 21.2121 137.432C27.7794 123.267 34.9227 109.331 41.3747 95.166C49.555 77.0848 57.3896 58.8885 65.3394 40.577C66.4916 37.813 67.1828 34.8187 67.9893 31.9395C69.7176 25.8357 68.2198 20.3077 64.9938 15.1252C59.8091 6.71801 59.6939 6.48769 69.8328 5.10569C83.3129 3.26303 96.793 1.76586 110.273 0.383865C114.536 -0.0768018 118.914 0.959664 123.177 0.844498C128.131 0.844498 130.321 3.95403 131.012 7.98486C132.394 16.0465 133.201 24.2233 134.238 32.4002C138.155 63.9558 135.505 95.7418 136.773 127.413C137.233 139.044 139.423 150.676 141.496 162.193C142.879 169.794 147.372 171.406 154.285 167.606C159.239 164.957 164.078 161.732 169.378 160.12C175.139 158.277 176.637 154.131 177.443 149.409C178.826 140.772 179.748 132.134 180.785 123.382C181.361 118.43 182.052 113.477 182.513 108.525C183.435 100.118 180.669 92.6323 176.291 85.8375C171.107 77.6606 171.222 76.9696 180.669 75.9331C190.463 74.7815 200.256 73.9753 210.049 73.3995C217.077 73.054 218.575 74.6663 219.382 81.5763C219.612 83.7645 219.727 85.7223 219.958 88.8318ZM246.803 120.963C246.803 118.775 246.803 114.399 246.803 110.138C246.803 109.216 246.803 108.295 246.688 107.489C245.881 98.8513 240.351 94.1295 232.516 95.9721C229.636 96.6631 227.101 98.3906 224.336 99.4271C220.649 100.924 219.727 103.573 219.497 107.374C219.036 114.975 218.345 122.576 216.847 130.061C214.197 144.342 210.856 158.508 207.975 172.673C207.745 173.594 208.091 175.437 208.551 175.552C213.506 177.165 218.575 180.044 223.414 179.583C231.364 178.892 236.318 172.558 239.083 165.533C244.383 152.058 247.609 137.893 246.803 120.963ZM91.954 24.2233C78.3587 54.5122 65.685 83.1887 52.781 111.865C54.394 112.441 54.8549 112.786 55.3157 112.786C68.1046 112.902 80.7782 112.786 93.567 112.902C96.5626 112.902 97.5995 111.404 97.5995 108.64C97.4843 82.6128 98.7517 56.5852 94.9496 30.7878C94.7192 28.83 93.3366 27.2177 91.954 24.2233Z" fill="#FF642F"/>
<path d="M591.986 73.0543C594.291 73.2846 596.365 73.6302 598.438 73.6302C633.464 73.6302 668.489 73.6302 703.514 73.6302C709.39 73.6302 710.658 72.5937 710.888 66.3747C711.234 58.6585 711.234 50.9423 711.234 43.2262C711.234 40.2318 711.925 37.6982 715.151 37.1223C725.29 35.2797 735.429 33.6673 745.568 31.9398C749.37 31.2488 750.983 33.0915 750.637 36.6617C749.831 46.2205 749.024 55.8945 748.218 65.4533C747.987 67.8718 747.757 70.2903 747.526 73.515C776.445 73.515 804.673 73.515 833.707 73.515C833.131 75.4728 833.016 76.7397 832.325 77.5458C826.333 84.6862 820.112 91.5961 814.236 98.7365C812.392 100.925 811.125 101.961 808.014 100.234C789.004 89.408 768.035 89.5231 747.066 90.3293C745.683 90.3293 743.379 91.8265 743.148 92.863C741.074 102.422 739.346 112.096 737.733 121.77C735.659 133.862 733.931 145.955 731.972 158.047C731.742 159.314 731.281 160.466 731.281 161.733C731.166 171.522 733.931 173.134 742.918 169.794C744.416 169.218 746.029 168.873 747.411 168.182C753.287 165.533 754.785 166.109 756.398 172.098C756.628 173.019 756.167 174.746 755.476 175.322C742.803 184.996 729.668 193.288 712.731 193.173C697.523 193.058 690.61 178.892 692.223 166.915C693.375 158.047 694.988 149.295 696.717 140.542C698.56 131.213 700.864 121.885 702.823 112.556C704.09 107.028 705.243 101.385 706.279 95.8573C706.971 92.172 705.819 90.2141 701.556 90.099C693.606 89.7535 685.541 89.0625 677.591 88.3715C672.867 87.9108 670.909 90.3293 669.987 94.7056C665.954 113.478 661.576 132.135 657.774 150.907C656.507 157.241 656.852 163.921 656.507 170.485C657.083 170.946 657.659 171.522 658.12 171.982C662.152 170.37 666.185 168.643 670.448 167.376C672.061 166.915 675.287 167.03 675.517 167.606C676.439 170.14 677.706 174.631 676.554 175.553C664.226 185.572 650.976 194.21 633.925 193.058C625.629 192.482 618.601 184.996 617.91 176.589C616.873 162.884 621.136 150.216 624.362 137.317C627.357 124.994 631.966 112.672 630.353 99.6578C630.007 96.5483 628.97 93.3236 627.588 90.5596C626.896 89.1776 624.477 88.1412 622.864 88.026C612.84 87.7957 602.701 87.9108 592.678 88.2563C591.295 88.2563 588.991 89.9838 588.645 91.2507C586.686 99.082 584.958 106.913 583.576 114.745C581.502 125.685 579.658 136.741 578.045 147.797C577.124 154.016 576.778 160.235 576.432 166.454C576.202 170.37 578.506 172.213 582.308 171.176C585.995 170.255 589.797 168.988 593.254 167.376C596.019 166.109 597.747 165.879 599.36 168.758C600.973 171.407 602.125 173.825 599.13 176.128C591.41 182.002 583.576 187.875 574.013 190.294C568.022 191.791 561.8 192.828 555.578 192.943C545.67 193.058 537.72 184.536 537.259 174.631C536.798 162.769 538.527 151.137 541.638 139.736C544.057 130.638 545.44 121.309 547.283 112.211C548.32 106.798 549.472 101.385 550.509 95.9725C551.431 91.3658 550.394 90.2142 545.555 90.6748C536.338 91.5962 536.568 91.5961 536.683 82.1525C536.683 77.3155 538.181 75.1273 543.135 75.9335C543.711 76.0486 544.172 75.9335 544.748 75.9335C554.196 75.9335 554.081 75.9335 554.542 66.605C555.002 58.1978 555.579 49.9058 556.5 41.6138C556.615 40.1167 557.883 37.9285 559.15 37.583C569.75 34.4735 580.465 31.364 591.641 32.2854C593.023 32.4005 595.328 34.819 595.328 36.0858C595.328 42.9958 594.867 50.021 594.175 56.931C594.06 61.9983 592.908 67.0656 591.986 73.0543Z" fill="#7F7F7F"/>
<path d="M334.02 185.572C330.103 205.266 327.453 224.153 327.107 243.501C316.738 247.417 306.484 250.181 295.423 249.95C292.197 249.95 290.123 249.605 290.354 245.804C291.045 235.9 291.621 225.996 292.543 216.091C293.119 210.448 294.502 204.805 295.539 199.277C297.728 188.566 300.378 177.856 302.336 167.03C304.525 154.938 306.369 142.73 307.982 130.522C309.134 121.885 309.595 113.132 310.286 104.495C310.862 97.0089 307.867 90.5596 303.834 84.6861C298.765 77.3155 298.765 76.97 307.521 76.0486C318.351 75.0121 329.181 74.206 340.127 73.3998C344.62 73.0543 346.579 75.2424 346.924 79.6188C347.155 82.3828 348.192 85.0316 348.768 87.7956C356.602 83.3041 363.746 79.1581 370.889 75.2425C388.632 65.4533 406.26 79.2733 410.523 94.1298C414.901 109.332 413.634 124.764 412.251 139.966C411.099 152.519 407.642 164.957 399.808 175.092C391.628 185.802 381.028 192.943 366.741 193.519C355.45 194.094 345.311 191.33 334.02 185.572ZM376.534 119.582C375.843 115.436 374.806 110.138 374 104.955C373.078 99.6578 369.737 95.9725 365.474 95.627C359.022 95.1663 349.689 99.3123 348.883 103.689C347.155 112.787 346.118 121.885 344.505 130.983C343.237 138.123 341.74 145.264 340.472 152.404C339.205 159.429 337.938 166.339 336.901 173.364C336.67 174.746 337.361 177.51 338.053 177.741C342.777 178.777 347.731 180.044 352.455 179.583C359.828 178.892 363.63 173.019 366.626 166.8C373.654 152.404 374.345 136.511 376.534 119.582Z" fill="#FF642F"/>
<path d="M514.447 162.654C515.484 164.036 516.866 165.418 517.788 167.145C519.055 169.449 518.94 171.522 516.521 173.364C505.575 181.771 494.284 189.833 480.228 192.252C464.444 194.9 448.774 195.361 437.022 181.311C431.838 175.092 427.92 168.412 427.344 160.005C426.884 153.095 425.386 146.185 425.616 139.275C426.423 120.042 432.875 102.652 447.392 89.7534C457.185 81.1159 468.591 75.1272 482.071 72.9391C494.054 70.9812 504.654 72.8239 514.908 78.467C522.397 82.4979 526.775 89.1776 527.466 97.4696C528.964 116.011 519.401 128.795 503.617 136.396C493.363 141.233 482.071 143.997 471.011 146.876C464.098 148.719 462.024 150.446 464.559 157.471C469.283 171.061 477.924 178.316 494.86 171.982C501.543 169.679 507.764 165.994 514.447 162.654ZM464.213 134.668C471.241 135.129 476.656 131.904 481.611 127.989C491.404 120.273 494.054 109.677 493.593 97.815C493.363 92.7477 492.441 88.0259 487.256 86.068C482.532 84.2254 476.772 86.9894 473.661 92.7477C471.126 97.3544 469.167 102.307 467.439 107.259C464.559 116.011 462.946 124.994 464.213 134.668Z" fill="#7F7F7F"/>
<path d="M659.502 6.94873C668.719 7.63973 677.476 13.6284 679.089 20.6535C681.163 29.982 676.784 39.7712 669.065 44.3779C660.309 49.5604 651.322 51.1727 643.026 45.0688C629.662 35.2797 635.077 16.7379 649.018 10.1734C652.359 8.67622 656.046 7.98523 659.502 6.94873Z" fill="#7F7F7F"/>
<path d="M880.884 159.774C881.921 161.156 883.304 162.538 884.226 164.266C885.493 166.569 885.378 168.642 882.958 170.485C872.013 178.892 860.722 186.954 846.666 189.372C830.881 192.021 815.212 192.482 803.46 178.431C798.275 172.212 794.358 165.533 793.782 157.126C793.321 150.216 791.823 143.306 792.054 136.396C792.86 117.163 799.312 99.7726 813.829 86.874C823.623 78.2365 835.029 72.2478 848.509 70.0597C860.491 68.1018 871.091 69.9445 881.345 75.5876C888.834 79.6185 893.212 86.2982 893.904 94.5902C895.401 113.132 885.839 125.915 870.054 133.516C859.8 138.353 848.509 141.117 837.448 143.997C830.535 145.839 828.462 147.567 830.996 154.592C835.72 168.182 844.361 175.437 861.298 169.103C867.98 166.684 874.202 162.999 880.884 159.774ZM830.651 131.789C837.679 132.25 843.094 129.025 848.048 125.109C857.841 117.393 860.491 106.798 860.03 94.9356C859.8 89.8683 858.878 85.1465 853.694 83.1886C848.97 81.346 843.209 84.11 840.098 89.8683C837.564 94.475 835.605 99.4271 833.877 104.379C830.996 113.017 829.383 122 830.651 131.789Z" fill="#7F7F7F"/>
</svg>
