<svg width="388" height="360" viewBox="0 0 388 360" fill="none" xmlns="http://www.w3.org/2000/svg">
<g clip-path="url(#clip0_19_2)">
<path d="M93.4249 291.251C96.1279 289.483 98.3394 287.862 100.797 286.537C108.119 282.51 114.508 283.246 118.882 290.907C120.062 293.019 120.946 295.572 121.094 297.929C121.339 302.643 121.094 307.358 120.799 312.072C120.651 314.478 120.111 316.835 119.472 319.143C116.081 331.027 107.775 337.706 95.1941 335.496C93.13 335.152 91.1642 333.875 89.1493 333.09C88.6087 332.893 88.0681 332.795 87.3801 332.648C86.8886 335.25 86.2989 337.607 86.1023 340.014C85.6108 345.17 85.3651 350.326 84.8737 355.482C84.8245 356.17 84.2839 357.201 83.6942 357.446C79.3694 359.312 74.7989 360.049 70.081 359.853C69.5404 359.853 68.6067 358.87 68.6067 358.379C68.7049 355.138 68.9507 351.897 69.2947 348.656C69.5404 346.348 69.9827 344.04 70.3759 341.732C71.1622 337.558 71.9485 333.384 72.784 329.259C72.9806 328.277 73.3737 327.295 73.6686 326.362C73.472 326.215 73.2754 326.067 73.0789 325.92C72.1451 326.657 71.2113 327.442 70.2776 328.179C64.7242 332.746 58.7285 336.036 51.2585 335.889C47.2286 335.84 43.4935 332.255 42.3141 328.424C40.6431 323.072 41.1346 317.572 41.0363 312.072C40.9872 308.831 40.9872 308.634 37.6944 308.585C32.0919 308.536 26.5385 308.733 20.936 308.831C17.6433 308.88 17.1027 311.679 16.1689 313.889C14.3997 318.21 12.8762 322.581 11.3036 326.951C10.763 328.424 10.2224 329.849 9.8292 331.273C8.64972 335.741 6.97879 336.576 2.75232 334.71C-0.294674 333.384 -0.638689 332.549 0.835662 329.259C3.3912 323.465 5.99589 317.719 8.64972 311.974C11.451 305.934 14.498 299.992 17.2501 293.952C20.7394 286.242 24.0813 278.483 27.4723 270.675C27.9637 269.497 28.2586 268.22 28.6026 266.992C29.3398 264.389 28.7009 262.032 27.3248 259.823C25.1133 256.238 25.0642 256.14 29.3889 255.55C35.1389 254.765 40.8889 254.126 46.6388 253.537C48.4572 253.341 50.3247 253.782 52.1431 253.733C54.2563 253.733 55.1901 255.059 55.4849 256.778C56.0747 260.215 56.4187 263.702 56.861 267.189C58.5319 280.644 57.4016 294.197 57.9422 307.701C58.1388 312.661 59.0725 317.621 59.9571 322.532C60.5469 325.773 62.4635 326.46 65.4122 324.84C67.5255 323.71 69.5896 322.335 71.8502 321.648C74.3075 320.862 74.9464 319.094 75.2904 317.081C75.8801 313.398 76.2733 309.715 76.7156 305.983C76.9613 303.871 77.2562 301.76 77.4528 299.648C77.8459 296.063 76.6664 292.871 74.7989 289.974C72.5874 286.487 72.6366 286.193 76.6664 285.751C80.8438 285.26 85.0211 284.916 89.1984 284.67C92.1963 284.523 92.8352 285.211 93.1792 288.157C93.2775 289.09 93.3266 289.925 93.4249 291.251ZM104.876 304.951C104.876 304.018 104.876 302.152 104.876 300.335C104.876 299.943 104.876 299.55 104.827 299.206C104.483 295.523 102.124 293.51 98.7817 294.295C97.5531 294.59 96.4719 295.327 95.2924 295.769C93.7198 296.407 93.3266 297.536 93.2283 299.157C93.0317 302.398 92.7369 305.639 92.098 308.831C90.9677 314.92 89.5424 320.96 88.3138 327C88.2155 327.393 88.363 328.179 88.5595 328.228C90.6728 328.915 92.8352 330.143 94.8993 329.947C98.2903 329.652 100.403 326.951 101.583 323.956C103.844 318.21 105.22 312.17 104.876 304.951ZM38.8248 263.702C33.0257 276.617 27.6197 288.845 22.1155 301.072C22.8035 301.318 23.0001 301.465 23.1967 301.465C28.6517 301.514 34.0577 301.465 39.5128 301.514C40.7906 301.514 41.2329 300.876 41.2329 299.697C41.1837 288.599 41.7243 277.501 40.1025 266.501C40.0042 265.666 39.4145 264.979 38.8248 263.702Z" fill="#FF642F"/>
<path d="M252.114 284.523C253.097 284.622 253.982 284.769 254.866 284.769C269.806 284.769 284.746 284.769 299.687 284.769C302.193 284.769 302.733 284.327 302.832 281.675C302.979 278.385 302.979 275.095 302.979 271.805C302.979 270.528 303.274 269.448 304.65 269.202C308.975 268.416 313.3 267.729 317.624 266.992C319.246 266.698 319.934 267.483 319.787 269.006C319.443 273.082 319.099 277.206 318.755 281.282C318.656 282.314 318.558 283.345 318.46 284.72C330.795 284.72 342.836 284.72 355.22 284.72C354.975 285.555 354.926 286.095 354.631 286.439C352.075 289.483 349.421 292.43 346.915 295.474C346.129 296.407 345.588 296.849 344.261 296.112C336.152 291.496 327.208 291.546 318.263 291.889C317.674 291.889 316.691 292.528 316.592 292.97C315.708 297.046 314.971 301.17 314.283 305.295C313.398 310.452 312.661 315.608 311.825 320.764C311.727 321.304 311.53 321.795 311.53 322.335C311.481 326.509 312.661 327.197 316.494 325.773C317.133 325.527 317.821 325.38 318.411 325.085C320.917 323.956 321.556 324.201 322.244 326.755C322.342 327.148 322.146 327.884 321.851 328.13C316.445 332.255 310.842 335.791 303.618 335.741C297.131 335.692 294.182 329.652 294.87 324.545C295.362 320.764 296.05 317.032 296.787 313.3C297.573 309.322 298.556 305.345 299.392 301.367C299.932 299.01 300.424 296.604 300.866 294.246C301.161 292.675 300.669 291.84 298.851 291.791C295.46 291.644 292.02 291.349 288.629 291.055C286.614 290.858 285.778 291.889 285.385 293.755C283.665 301.76 281.798 309.715 280.176 317.719C279.635 320.42 279.783 323.268 279.635 326.067C279.881 326.264 280.127 326.509 280.323 326.706C282.043 326.018 283.764 325.282 285.582 324.742C286.27 324.545 287.646 324.594 287.744 324.84C288.137 325.92 288.678 327.835 288.187 328.228C282.928 332.5 277.276 336.183 270.003 335.692C266.464 335.447 263.467 332.255 263.172 328.67C262.729 322.826 264.548 317.425 265.924 311.925C267.202 306.67 269.167 301.416 268.479 295.867C268.332 294.541 267.89 293.166 267.3 291.988C267.005 291.398 265.973 290.956 265.285 290.907C261.009 290.809 256.685 290.858 252.409 291.005C251.819 291.005 250.836 291.742 250.689 292.282C249.853 295.621 249.116 298.961 248.527 302.3C247.642 306.965 246.856 311.679 246.168 316.393C245.774 319.045 245.627 321.697 245.48 324.349C245.381 326.018 246.364 326.804 247.986 326.362C249.559 325.969 251.18 325.429 252.655 324.742C253.834 324.201 254.571 324.103 255.259 325.331C255.947 326.46 256.439 327.492 255.161 328.474C251.868 330.978 248.527 333.483 244.447 334.514C241.892 335.152 239.238 335.594 236.584 335.643C232.358 335.692 228.967 332.058 228.77 327.835C228.574 322.777 229.311 317.818 230.638 312.956C231.67 309.077 232.26 305.099 233.046 301.22C233.488 298.912 233.98 296.604 234.422 294.296C234.815 292.331 234.373 291.84 232.309 292.037C228.377 292.43 228.475 292.43 228.524 288.403C228.524 286.34 229.163 285.407 231.277 285.751C231.522 285.8 231.719 285.751 231.965 285.751C235.995 285.751 235.945 285.751 236.142 281.773C236.339 278.189 236.584 274.653 236.977 271.117C237.027 270.479 237.567 269.546 238.108 269.399C242.629 268.073 247.2 266.747 251.967 267.14C252.556 267.189 253.539 268.22 253.539 268.76C253.539 271.707 253.343 274.702 253.048 277.648C252.999 279.809 252.507 281.97 252.114 284.523Z" fill="#7F7F7F"/>
<path d="M142.078 332.5C140.407 340.898 139.277 348.951 139.13 357.201C134.706 358.871 130.333 360.049 125.615 359.951C124.239 359.951 123.354 359.804 123.452 358.183C123.747 353.96 123.993 349.737 124.386 345.514C124.632 343.107 125.221 340.701 125.664 338.344C126.598 333.777 127.728 329.21 128.563 324.594C129.497 319.438 130.283 314.233 130.971 309.027C131.463 305.344 131.659 301.612 131.954 297.929C132.2 294.737 130.922 291.987 129.202 289.483C127.04 286.34 127.04 286.193 130.775 285.8C135.394 285.358 140.014 285.014 144.683 284.671C146.6 284.523 147.435 285.456 147.582 287.322C147.681 288.501 148.123 289.63 148.369 290.809C151.711 288.894 154.758 287.126 157.805 285.456C165.373 281.282 172.892 287.175 174.711 293.51C176.578 299.992 176.037 306.572 175.448 313.054C174.956 318.407 173.482 323.71 170.14 328.032C166.651 332.599 162.129 335.643 156.035 335.889C151.219 336.134 146.894 334.956 142.078 332.5ZM160.213 304.362C159.918 302.594 159.476 300.336 159.132 298.126C158.738 295.867 157.313 294.295 155.495 294.148C152.743 293.952 148.762 295.72 148.418 297.586C147.681 301.465 147.238 305.344 146.55 309.224C146.01 312.268 145.371 315.313 144.83 318.358C144.29 321.353 143.749 324.3 143.307 327.295C143.209 327.884 143.503 329.063 143.798 329.161C145.813 329.603 147.926 330.143 149.941 329.947C153.087 329.652 154.708 327.148 155.986 324.496C158.984 318.358 159.279 311.581 160.213 304.362Z" fill="#FF642F"/>
<path d="M219.04 322.728C219.482 323.317 220.072 323.907 220.465 324.643C221.006 325.625 220.956 326.509 219.924 327.295C215.256 330.88 210.439 334.317 204.444 335.349C197.711 336.478 191.027 336.674 186.014 330.683C183.803 328.032 182.132 325.183 181.886 321.599C181.689 318.652 181.051 315.706 181.149 312.76C181.493 304.559 184.245 297.144 190.437 291.644C194.615 287.961 199.48 285.407 205.23 284.474C210.341 283.639 214.862 284.425 219.236 286.831C222.431 288.55 224.298 291.398 224.593 294.934C225.232 302.84 221.153 308.291 214.42 311.532C210.046 313.594 205.23 314.773 200.512 316.001C197.563 316.786 196.679 317.523 197.76 320.518C199.775 326.313 203.461 329.407 210.685 326.706C213.535 325.724 216.189 324.152 219.04 322.728ZM197.612 310.795C200.61 310.992 202.92 309.617 205.033 307.947C209.211 304.657 210.341 300.139 210.144 295.081C210.046 292.92 209.653 290.907 207.441 290.072C205.427 289.287 202.969 290.465 201.642 292.92C200.561 294.885 199.726 296.996 198.989 299.108C197.76 302.84 197.072 306.67 197.612 310.795Z" fill="#7F7F7F"/>
<path d="M280.913 256.336C284.845 256.631 288.58 259.184 289.268 262.18C290.152 266.157 288.285 270.332 284.992 272.296C281.257 274.506 277.424 275.193 273.885 272.59C268.184 268.416 270.494 260.51 276.441 257.711C277.866 257.073 279.439 256.778 280.913 256.336Z" fill="#7F7F7F"/>
<path d="M370.901 322.577C371.343 323.166 371.933 323.755 372.326 324.492C372.867 325.474 372.818 326.358 371.786 327.143C367.117 330.728 362.301 334.166 356.305 335.197C349.572 336.326 342.888 336.523 337.876 330.532C335.664 327.88 333.993 325.032 333.747 321.447C333.551 318.501 332.912 315.554 333.01 312.608C333.354 304.407 336.106 296.992 342.299 291.492C346.476 287.809 351.341 285.256 357.091 284.323C362.202 283.488 366.724 284.273 371.098 286.68C374.292 288.398 376.16 291.247 376.454 294.782C377.093 302.688 373.014 308.139 366.281 311.38C361.908 313.443 357.091 314.621 352.373 315.849C349.425 316.635 348.54 317.371 349.621 320.367C351.636 326.161 355.322 329.255 362.546 326.554C365.397 325.523 368.051 323.952 370.901 322.577ZM349.474 310.644C352.472 310.84 354.781 309.465 356.895 307.795C361.072 304.505 362.202 299.988 362.006 294.93C361.907 292.769 361.514 290.755 359.303 289.921C357.288 289.135 354.831 290.314 353.504 292.769C352.423 294.733 351.587 296.845 350.85 298.956C349.621 302.639 348.933 306.47 349.474 310.644Z" fill="#7F7F7F"/>
<path d="M192.251 72.4536C219.999 72.4536 243.114 95.4186 243.026 122.836C242.938 151.002 219.999 174.055 192.251 173.923C164.328 173.791 141.301 150.605 141.477 122.791C141.654 95.1101 164.504 72.4536 192.251 72.4536Z" fill="#FF642F"/>
<path d="M184.708 20C248.054 20 293.712 64.0787 295.344 119.662C295.476 123.805 296.932 126.626 300.108 128.742C307.21 133.503 309.24 140.026 307.607 148.225C306.108 155.851 304.034 163.168 299.138 169.339C293.976 175.862 288.153 175.862 283.125 169.25C276.772 160.92 274.302 151.178 274.258 140.864C274.214 136.015 277.081 132.357 280.919 129.888C286.301 126.45 287.315 121.866 286.83 115.915C283.963 78.3602 258.156 45.1249 222.425 33.3558C185.722 21.2783 145.8 32.0335 120.876 60.7728C119.817 62.007 118.847 63.2853 117.744 64.4754C115.979 66.3708 113.95 66.7675 111.833 65.0484C109.804 63.3734 109.407 61.3899 111.083 59.23C111.921 58.1281 112.847 57.0261 113.774 55.9241C134.595 32.342 160.798 20.4408 184.708 20Z" fill="#535353"/>
<path d="M90.0849 104.411C92.467 98.9009 91.4083 94.8898 91.5848 91.0549C91.7612 86.8234 91.4965 82.5477 91.7171 78.3162C91.8053 76.3767 90.4378 72.8064 93.4816 72.9386C96.2167 73.0268 94.9374 76.5971 95.0256 78.6247C95.2021 84.6635 95.0256 90.7464 95.1138 96.8292C95.1579 98.7246 94.3639 100.84 96.1284 102.559C98.8635 102.031 97.893 99.7825 97.9371 98.2398C98.0694 90.9668 97.9812 83.6938 98.0253 76.4208C98.0253 74.9221 97.6283 72.6741 100.01 72.8504C101.907 72.9827 101.334 75.0544 101.334 76.3327C101.378 84.0023 101.378 91.672 101.378 99.3858C101.378 100.576 101.466 101.722 102.966 102.736C105.083 101.017 104.422 98.7246 104.466 96.697C104.554 89.6444 104.51 82.5478 104.51 75.4952C104.51 74.305 104.51 72.8064 106.098 72.7623C107.73 72.7182 107.774 74.261 107.774 75.407C107.774 87.3082 107.774 99.2536 107.686 111.155C107.642 114.637 105.172 116.709 102.481 118.119C98.29 120.323 97.3636 123.541 97.5401 128.081C99.1281 166.738 126.125 201.472 164.107 213.417C201.956 225.319 243.82 211.963 267.729 180.447C269.758 177.758 271.302 172.072 276.243 175.686C281.36 179.477 276.463 182.915 274.258 185.78C247.481 220.558 202.397 234.663 160.798 221.44C119.111 208.172 90.6143 170.353 89.1585 126.053C89.0262 122.263 87.7028 120.059 84.6149 118.34C80.4682 116.048 78.9243 112.609 79.0566 107.805C79.3654 97.7108 79.1007 87.6168 79.1889 77.4787C79.1889 75.8478 78.2626 72.9386 80.5123 72.8945C83.4238 72.8504 82.2769 75.9359 82.2769 77.6991C82.4092 84.7517 82.321 91.8484 82.3651 98.9009C82.3651 100.179 82.0122 102.207 83.8649 102.251C85.9383 102.295 85.3648 100.223 85.3648 98.945C85.453 91.4516 85.3648 84.0023 85.4089 76.509C85.4089 75.0103 84.9237 72.63 87.1293 72.7182C89.1144 72.8064 88.7615 75.1425 88.7615 76.7294C88.8056 84.6194 88.7615 92.5095 88.8497 100.356C88.8497 101.193 89.2468 101.898 90.0849 104.411Z" fill="#7F7F7F"/>
<path d="M192.075 203.455C159.563 203.147 129.699 182.915 117.921 152.941C116.685 149.856 114.347 146.153 119.2 144.302C123.611 142.627 124.449 146.462 125.685 149.459C138.257 180.138 168.21 197.769 201.251 193.89C202.442 193.758 203.677 193.626 204.868 193.45C207.559 193.097 209.808 193.67 210.382 196.711C211 200.105 208.838 201.516 205.927 201.913C201.339 202.574 196.707 202.971 192.075 203.455Z" fill="#7F7F7F"/>
<path d="M193.001 42.8767C226.66 44.8162 251.407 60.5963 265.965 91.76C266.626 93.2146 267.156 94.7573 267.685 96.3001C268.656 99.033 267.906 101.105 265.038 102.074C262.436 102.956 260.715 101.678 259.789 99.3415C257.716 94.0961 255.51 88.8949 252.246 84.2225C235.085 59.6266 211.573 49.0036 181.753 52.4859C178.444 52.8826 174.871 53.9405 174.121 49.2681C173.371 44.4195 177.429 44.4635 180.517 44.0668C184.488 43.4938 188.502 43.2734 193.001 42.8767Z" fill="#7F7F7F"/>
<path d="M151.579 63.6819C148.932 63.1089 147.035 61.6984 147.256 59.1859C147.653 55.0425 151.182 53.6761 154.579 53.3675C157.049 53.1471 158.593 55.3951 158.284 57.9076C157.843 61.8306 154.226 62.4036 151.579 63.6819Z" fill="#535353"/>
<path d="M237.379 187.543C236.011 190.893 233.276 192.612 230.012 192.788C227.101 192.921 225.557 190.496 226.262 187.852C227.189 184.414 230.233 182.827 233.585 182.871C236.056 182.915 237.158 185.031 237.379 187.543Z" fill="#535353"/>
<path d="M93.4244 291.251C96.1274 289.483 98.3389 287.862 100.796 286.537C108.119 282.51 114.508 283.246 118.882 290.907C120.061 293.019 120.946 295.572 121.093 297.929C121.339 302.643 121.093 307.358 120.798 312.072C120.651 314.478 120.11 316.835 119.471 319.143C116.08 331.027 107.775 337.706 95.1936 335.496C93.1295 335.152 91.1637 333.875 89.1488 333.09C88.6082 332.893 88.0676 332.795 87.3796 332.648C86.8881 335.25 86.2984 337.607 86.1018 340.014C85.6104 345.17 85.3646 350.326 84.8732 355.482C84.824 356.17 84.2834 357.201 83.6937 357.446C79.3689 359.312 74.7984 360.049 70.0805 359.853C69.5399 359.853 68.6062 358.87 68.6062 358.379C68.7045 355.138 68.9502 351.897 69.2942 348.656C69.5399 346.348 69.9822 344.04 70.3754 341.732C71.1617 337.558 71.948 333.384 72.7835 329.259C72.9801 328.277 73.3732 327.295 73.6681 326.362C73.4715 326.215 73.2749 326.067 73.0784 325.92C72.1446 326.657 71.2109 327.442 70.2771 328.179C64.7237 332.746 58.728 336.036 51.258 335.889C47.2281 335.84 43.4931 332.255 42.3136 328.424C40.6426 323.072 41.1341 317.572 41.0358 312.072C40.9867 308.831 40.9867 308.634 37.6939 308.585C32.0914 308.536 26.538 308.733 20.9355 308.831C17.6428 308.88 17.1022 311.679 16.1684 313.889C14.3992 318.21 12.8757 322.581 11.3031 326.951C10.7625 328.424 10.2219 329.849 9.82871 331.273C8.64923 335.741 6.9783 336.576 2.75183 334.71C-0.295163 333.384 -0.639178 332.549 0.835173 329.259C3.39071 323.465 5.9954 317.719 8.64923 311.974C11.4505 305.934 14.4975 299.992 17.2496 293.952C20.7389 286.242 24.0808 278.483 27.4718 270.675C27.9632 269.497 28.2581 268.22 28.6021 266.992C29.3393 264.389 28.7004 262.032 27.3243 259.823C25.1128 256.238 25.0637 256.14 29.3884 255.55C35.1384 254.765 40.8884 254.126 46.6383 253.537C48.4567 253.341 50.3242 253.782 52.1426 253.733C54.2558 253.733 55.1896 255.059 55.4844 256.778C56.0742 260.215 56.4182 263.702 56.8605 267.189C58.5314 280.644 57.4011 294.197 57.9417 307.701C58.1383 312.661 59.072 317.621 59.9566 322.532C60.5464 325.773 62.463 326.46 65.4117 324.84C67.525 323.71 69.5891 322.335 71.8497 321.648C74.307 320.862 74.9459 319.094 75.2899 317.081C75.8796 313.398 76.2728 309.715 76.7151 305.983C76.9608 303.871 77.2557 301.76 77.4523 299.648C77.8454 296.063 76.666 292.871 74.7984 289.974C72.5869 286.487 72.6361 286.193 76.666 285.751C80.8433 285.26 85.0206 284.916 89.1979 284.67C92.1958 284.523 92.8347 285.211 93.1787 288.157C93.277 289.09 93.3261 289.925 93.4244 291.251ZM104.875 304.951C104.875 304.018 104.875 302.152 104.875 300.335C104.875 299.943 104.875 299.55 104.826 299.206C104.482 295.523 102.123 293.51 98.7812 294.295C97.5526 294.59 96.4714 295.327 95.2919 295.769C93.7193 296.407 93.3261 297.536 93.2278 299.157C93.0312 302.398 92.7364 305.639 92.0975 308.831C90.9672 314.92 89.542 320.96 88.3133 327C88.215 327.393 88.3625 328.179 88.5591 328.228C90.6723 328.915 92.8347 330.143 94.8988 329.947C98.2898 329.652 100.403 326.951 101.582 323.956C103.843 318.21 105.219 312.17 104.875 304.951ZM38.8243 263.702C33.0252 276.617 27.6192 288.845 22.115 301.072C22.803 301.318 22.9996 301.465 23.1962 301.465C28.6513 301.514 34.0572 301.465 39.5123 301.514C40.7901 301.514 41.2324 300.876 41.2324 299.697C41.1832 288.599 41.7238 277.501 40.1021 266.501C40.0038 265.666 39.414 264.979 38.8243 263.702Z" fill="#FF642F"/>
<path d="M252.114 284.523C253.097 284.622 253.981 284.769 254.866 284.769C269.806 284.769 284.746 284.769 299.686 284.769C302.192 284.769 302.733 284.327 302.831 281.675C302.979 278.385 302.979 275.095 302.979 271.805C302.979 270.528 303.274 269.448 304.65 269.202C308.974 268.416 313.299 267.729 317.624 266.992C319.246 266.698 319.934 267.483 319.786 269.006C319.442 273.082 319.098 277.206 318.754 281.282C318.656 282.314 318.558 283.345 318.459 284.72C330.795 284.72 342.835 284.72 355.22 284.72C354.974 285.555 354.925 286.095 354.63 286.439C352.075 289.483 349.421 292.43 346.914 295.474C346.128 296.407 345.587 296.849 344.261 296.112C336.152 291.496 327.207 291.546 318.263 291.889C317.673 291.889 316.69 292.528 316.592 292.97C315.707 297.046 314.97 301.17 314.282 305.295C313.397 310.452 312.66 315.608 311.825 320.764C311.727 321.304 311.53 321.795 311.53 322.335C311.481 326.509 312.66 327.197 316.494 325.773C317.133 325.527 317.821 325.38 318.41 325.085C320.917 323.956 321.556 324.201 322.244 326.755C322.342 327.148 322.145 327.884 321.85 328.13C316.444 332.255 310.842 335.791 303.618 335.741C297.13 335.692 294.182 329.652 294.87 324.545C295.361 320.764 296.049 317.032 296.786 313.3C297.573 309.322 298.556 305.345 299.391 301.367C299.932 299.01 300.423 296.604 300.866 294.246C301.16 292.675 300.669 291.84 298.851 291.791C295.46 291.644 292.019 291.349 288.628 291.055C286.613 290.858 285.778 291.889 285.385 293.755C283.665 301.76 281.797 309.715 280.175 317.719C279.635 320.42 279.782 323.268 279.635 326.067C279.881 326.264 280.126 326.509 280.323 326.706C282.043 326.018 283.763 325.282 285.581 324.742C286.269 324.545 287.645 324.594 287.744 324.84C288.137 325.92 288.678 327.835 288.186 328.228C282.928 332.5 277.276 336.183 270.002 335.692C266.464 335.447 263.466 332.255 263.171 328.67C262.729 322.826 264.547 317.425 265.923 311.925C267.201 306.67 269.167 301.416 268.479 295.867C268.331 294.541 267.889 293.166 267.299 291.988C267.005 291.398 265.973 290.956 265.284 290.907C261.009 290.809 256.684 290.858 252.408 291.005C251.819 291.005 250.836 291.742 250.688 292.282C249.853 295.621 249.116 298.961 248.526 302.3C247.641 306.965 246.855 311.679 246.167 316.393C245.774 319.045 245.626 321.697 245.479 324.349C245.381 326.018 246.364 326.804 247.985 326.362C249.558 325.969 251.18 325.429 252.654 324.742C253.834 324.201 254.571 324.103 255.259 325.331C255.947 326.46 256.438 327.492 255.161 328.474C251.868 330.978 248.526 333.483 244.447 334.514C241.891 335.152 239.238 335.594 236.584 335.643C232.357 335.692 228.966 332.058 228.77 327.835C228.573 322.777 229.31 317.818 230.637 312.956C231.669 309.077 232.259 305.099 233.045 301.22C233.488 298.912 233.979 296.604 234.421 294.296C234.815 292.331 234.372 291.84 232.308 292.037C228.377 292.43 228.475 292.43 228.524 288.403C228.524 286.34 229.163 285.407 231.276 285.751C231.522 285.8 231.718 285.751 231.964 285.751C235.994 285.751 235.945 285.751 236.141 281.773C236.338 278.189 236.584 274.653 236.977 271.117C237.026 270.479 237.567 269.546 238.107 269.399C242.629 268.073 247.199 266.747 251.966 267.14C252.556 267.189 253.539 268.22 253.539 268.76C253.539 271.707 253.342 274.702 253.047 277.648C252.998 279.809 252.507 281.97 252.114 284.523Z" fill="#7F7F7F"/>
<path d="M142.078 332.5C140.407 340.898 139.276 348.951 139.129 357.201C134.706 358.871 130.332 360.049 125.614 359.951C124.238 359.951 123.353 359.804 123.452 358.183C123.747 353.96 123.992 349.737 124.386 345.514C124.631 343.107 125.221 340.701 125.663 338.344C126.597 333.777 127.727 329.21 128.563 324.594C129.497 319.438 130.283 314.233 130.971 309.027C131.462 305.344 131.659 301.612 131.954 297.929C132.2 294.737 130.922 291.987 129.202 289.483C127.039 286.34 127.039 286.193 130.774 285.8C135.394 285.358 140.014 285.014 144.682 284.671C146.599 284.523 147.435 285.456 147.582 287.322C147.68 288.501 148.123 289.63 148.368 290.809C151.71 288.894 154.757 287.126 157.804 285.456C165.372 281.282 172.892 287.175 174.71 293.51C176.578 299.992 176.037 306.572 175.447 313.054C174.956 318.407 173.481 323.71 170.14 328.032C166.65 332.599 162.129 335.643 156.035 335.889C151.219 336.134 146.894 334.956 142.078 332.5ZM160.212 304.362C159.917 302.594 159.475 300.336 159.131 298.126C158.738 295.867 157.313 294.295 155.494 294.148C152.742 293.952 148.761 295.72 148.417 297.586C147.68 301.465 147.238 305.344 146.55 309.224C146.009 312.268 145.37 315.313 144.83 318.358C144.289 321.353 143.749 324.3 143.306 327.295C143.208 327.884 143.503 329.063 143.798 329.161C145.813 329.603 147.926 330.143 149.941 329.947C153.086 329.652 154.708 327.148 155.986 324.496C158.984 318.358 159.278 311.581 160.212 304.362Z" fill="#FF642F"/>
<path d="M219.039 322.728C219.482 323.317 220.071 323.907 220.464 324.643C221.005 325.625 220.956 326.509 219.924 327.295C215.255 330.88 210.439 334.317 204.443 335.349C197.71 336.478 191.027 336.674 186.014 330.683C183.802 328.032 182.131 325.183 181.886 321.599C181.689 318.652 181.05 315.706 181.148 312.76C181.492 304.559 184.245 297.144 190.437 291.644C194.614 287.961 199.479 285.407 205.229 284.474C210.341 283.639 214.862 284.425 219.236 286.831C222.43 288.55 224.298 291.398 224.593 294.934C225.231 302.84 221.152 308.291 214.42 311.532C210.046 313.594 205.229 314.773 200.512 316.001C197.563 316.786 196.678 317.523 197.759 320.518C199.774 326.313 203.46 329.407 210.685 326.706C213.535 325.724 216.189 324.152 219.039 322.728ZM197.612 310.795C200.61 310.992 202.92 309.617 205.033 307.947C209.21 304.657 210.341 300.139 210.144 295.081C210.046 292.92 209.653 290.907 207.441 290.072C205.426 289.287 202.969 290.465 201.642 292.92C200.561 294.885 199.725 296.996 198.988 299.108C197.759 302.84 197.071 306.67 197.612 310.795Z" fill="#7F7F7F"/>
<path d="M280.912 256.336C284.844 256.631 288.579 259.184 289.267 262.18C290.152 266.157 288.284 270.332 284.991 272.296C281.256 274.506 277.423 275.193 273.885 272.59C268.184 268.416 270.494 260.51 276.44 257.711C277.865 257.073 279.438 256.778 280.912 256.336Z" fill="#7F7F7F"/>
<path d="M370.901 322.577C371.343 323.166 371.933 323.755 372.326 324.492C372.867 325.474 372.818 326.358 371.786 327.143C367.117 330.728 362.301 334.166 356.305 335.197C349.572 336.326 342.888 336.523 337.876 330.532C335.664 327.88 333.993 325.032 333.747 321.447C333.551 318.501 332.912 315.554 333.01 312.608C333.354 304.407 336.106 296.992 342.299 291.492C346.476 287.809 351.341 285.256 357.091 284.323C362.202 283.488 366.724 284.273 371.098 286.68C374.292 288.398 376.16 291.247 376.454 294.782C377.093 302.688 373.014 308.139 366.281 311.38C361.908 313.443 357.091 314.621 352.373 315.849C349.425 316.635 348.54 317.371 349.621 320.367C351.636 326.161 355.322 329.255 362.546 326.554C365.397 325.523 368.051 323.952 370.901 322.577ZM349.474 310.644C352.472 310.84 354.781 309.465 356.895 307.795C361.072 304.505 362.202 299.988 362.006 294.93C361.907 292.769 361.514 290.755 359.303 289.921C357.288 289.135 354.831 290.314 353.504 292.769C352.423 294.733 351.587 296.845 350.85 298.956C349.621 302.639 348.933 306.47 349.474 310.644Z" fill="#7F7F7F"/>
</g>
<defs>
<clipPath id="clip0_19_2">
<rect width="388" height="360" fill="white"/>
</clipPath>
</defs>
</svg>
